<?xml version="1.0" encoding="ISO-8859-1" standalone="no"?>
<!DOCTYPE svg PUBLIC "-//W3C//DTD SVG 20000303 Stylable//EN"
"http://www.w3.org/TR/2000/03/WD-SVG-20000303/DTD/svg-20000303-stylable.dtd">
<svg width="8in" height="8in" viewBox="0 0 1 1" preserveAspectRatio="none">
<title>SVG drawing</title>
<desc>This was produced by version 4.1 of GNU libplot, a free library for exporting 2-D vector graphics.</desc>
<rect x="0" y="0" width="1" height="1" style="stroke:none;fill:white;"/>
<g transform="translate(-0.03125,1.1875) scale(1,-1) scale(0.0017361) " xml:space="preserve" style="stroke:black;stroke-linecap:butt;stroke-linejoin:miter;stroke-miterlimit:10.433;stroke-dasharray:none;stroke-dashoffset:0;stroke-opacity:1;fill:none;fill-rule:even-odd;fill-opacity:1;font-style:normal;font-variant:normal;font-weight:normal;font-stretch:normal;font-size-adjust:none;letter-spacing:normal;word-spacing:normal;text-anchor:start;">
<polygon points="0.99976,1.0002 253,1.0002 253,217 0.99976,217 " style="stroke:white;stroke-width:0;fill:white;"/>
<polygon points="0.99976,1.0002 253,1.0002 253,217 0.99976,217 " style="stroke:white;stroke-width:0.45;"/>
<polygon points="37,19 235,19 235,181 37,181 " style="stroke:#7fff7f;stroke-width:0;fill:#7fff7f;"/>
<polygon points="37,19 235,19 235,181 37,181 " style="stroke-width:0.45;"/>
<polygon points="86.5,77.5 194.5,77.5 194.5,145 86.5,145 " style="stroke:#ffff7f;stroke-width:0;fill:#ffff7f;"/>
<polygon points="86.5,77.5 194.5,77.5 194.5,145 86.5,145 " style="stroke-width:0.45;"/>
<line x1="19" y1="109" x2="19" y2="181" style="stroke-width:0.45;"/>
<polygon points="17.2,172.18 19,179.38 20.8,172.18 19,172.18 " style="stroke-width:0;fill:black;"/>
<polygon points="17.2,172.18 19,179.38 20.8,172.18 19,172.18 " style="stroke-width:0.45;"/>
<line x1="122.5" y1="194.5" x2="37" y2="194.5" style="stroke-width:0.45;"/>
<polygon points="45.82,192.7 38.62,194.5 45.82,196.3 45.82,194.5 " style="stroke-width:0;fill:black;"/>
<polygon points="45.82,192.7 38.62,194.5 45.82,196.3 45.82,194.5 " style="stroke-width:0.45;"/>
<line x1="176.5" y1="194.5" x2="235" y2="194.5" style="stroke-width:0.45;"/>
<polygon points="226.18,196.3 233.38,194.5 226.18,192.7 226.18,194.5 " style="stroke-width:0;fill:black;"/>
<polygon points="226.18,196.3 233.38,194.5 226.18,192.7 226.18,194.5 " style="stroke-width:0.45;"/>
<line x1="19" y1="91" x2="19" y2="19" style="stroke-width:0.45;"/>
<polygon points="20.8,27.82 19,20.62 17.2,27.82 19,27.82 " style="stroke-width:0;fill:black;"/>
<polygon points="20.8,27.82 19,20.62 17.2,27.82 19,27.82 " style="stroke-width:0.45;"/>
<path d="M111.76,125.2 L111.76,125.1 L111.75,125.01 L111.74,124.92 L111.72,124.83 L111.7,124.74 L111.68,124.65 L111.65,124.56 L111.61,124.48 L111.58,124.39 L111.54,124.31 L111.49,124.24 L111.44,124.16 L111.39,124.09 L111.34,124.02 L111.28,123.95 L111.22,123.88 L111.15,123.82 L111.08,123.76 L111.01,123.71 L110.94,123.66 L110.86,123.61 L110.79,123.56 L110.71,123.52 L110.62,123.49 L110.54,123.45 L110.45,123.42 L110.36,123.4 L110.27,123.38 L110.18,123.36 L110.09,123.35 L110,123.34 L109.9,123.34 C108.87,123.34,108.04,124.17,108.04,125.2 C108.04,126.23,108.87,127.06,109.9,127.06 C110.93,127.06,111.76,126.23,111.76,125.2 Z " style="stroke:red;stroke-width:0;fill:red;"/>
<path d="M111.76,125.2 L111.76,125.1 L111.75,125.01 L111.74,124.92 L111.72,124.83 L111.7,124.74 L111.68,124.65 L111.65,124.56 L111.61,124.48 L111.58,124.39 L111.54,124.31 L111.49,124.24 L111.44,124.16 L111.39,124.09 L111.34,124.02 L111.28,123.95 L111.22,123.88 L111.15,123.82 L111.08,123.76 L111.01,123.71 L110.94,123.66 L110.86,123.61 L110.79,123.56 L110.71,123.52 L110.62,123.49 L110.54,123.45 L110.45,123.42 L110.36,123.4 L110.27,123.38 L110.18,123.36 L110.09,123.35 L110,123.34 L109.9,123.34 C108.87,123.34,108.04,124.17,108.04,125.2 C108.04,126.23,108.87,127.06,109.9,127.06 C110.93,127.06,111.76,126.23,111.76,125.2 Z " style="stroke:red;stroke-width:1.8;"/>
<text transform="translate(125.8,190) scale(1,-1) " style="font-family:'Helvetica',sans-serif;font-size:10.8;stroke:none;fill:black;">columns()</text>
<text transform="translate(7.0093,95.5) scale(1,-1) " style="font-family:'Helvetica',sans-serif;font-size:10.8;stroke:none;fill:black;">rows()</text>
<text transform="translate(41.5,167.5) scale(1,-1) " style="font-family:'Helvetica',sans-serif;font-size:10.8;stroke:none;fill:black;">0,0</text>
<text transform="translate(126.39,149.5) scale(1,-1) " style="font-family:'Helvetica',sans-serif;font-size:10.8;stroke:none;fill:black;">columns_</text>
<text transform="translate(79.599,149.5) scale(1,-1) " style="font-family:'Helvetica',sans-serif;font-size:10.8;stroke:none;fill:black;">x,y</text>
<text transform="translate(53.197,109) scale(1,-1) " style="font-family:'Helvetica',sans-serif;font-size:10.8;stroke:none;fill:black;">rows_</text>
<text transform="translate(110.8,113.08) scale(1,-1) " style="font-family:'Helvetica',sans-serif;font-size:10.8;stroke:none;fill:black;">Pixel</text>
</g>
</svg>
