<?xml version="1.0" encoding="UTF-8"?>
<svg id="Layer_1" xmlns="http://www.w3.org/2000/svg" version="1.1" viewBox="0 0 1080 1080">
  <!-- Generator: Adobe Illustrator 30.3.0, SVG Export Plug-In . SVG Version: 2.1.3 Build 182)  -->
  <defs>
    <style>
      .st0 {
        fill: #ff0;
      }

      .st1 {
        fill: #333;
      }
    </style>
  </defs>
  <path class="st0" d="M660.52,419.49l-195.15-52.98c-15.84-4.3-19.16-25.29-5.43-34.28l169.23-110.7-9.91-201.97c-.8-16.39,18.13-26.04,30.92-15.76l157.57,126.74,189.03-71.84c15.34-5.83,30.37,9.2,24.54,24.54l-71.84,189.03,126.74,157.57c10.29,12.79.64,31.73-15.76,30.92l-201.97-9.91-110.7,169.23c-8.98,13.73-29.98,10.41-34.28-5.43l-52.98-195.15h-.01Z"/>
  <path class="st1" d="M603.34,476.66l32.94,121.68,4.45,16.23-429.11,429.11c-48.45,48.45-126.85,48.45-175.3,0C12.16,1019.51,0,987.89,0,956.15s12.02-63.48,36.31-87.77l429.11-429.11,16.35,4.33,121.56,33.06h0Z"/>
</svg>