P2
70 46
255
7 8 8 9 9 9 8 9 8 8 8 7 7 7 7 7 7 8 9 9 11 13 14 14 15 16 23 34 44 53 67 75 79 
75 60 45 42 40 37 32 30 29 30 30 31 33 43 48 33 14 10 9 9 8 8 7 7 7 7 13 29 49 
61 47 20 21 47 79 49 24 7 7 8 8 8 8 8 8 8 8 8 7 7 8 8 7 8 8 9 9 10 12 13 13 14 
15 21 28 37 48 65 73 82 79 58 42 41 40 36 32 30 29 29 28 30 32 46 54 33 11 9 9 
8 8 8 7 7 8 7 10 23 41 61 44 17 16 29 58 39 24 6 7 7 7 7 7 7 7 7 7 7 7 7 7 7 8 
8 8 8 9 9 10 10 11 12 14 17 19 24 36 51 65 78 72 46 37 38 37 33 29 29 28 27 26 
27 34 50 53 36 12 9 9 8 8 8 8 8 8 7 7 10 25 70 52 18 11 10 15 20 25 7 7 7 7 6 
6 6 6 6 6 6 6 7 7 7 7 7 7 7 8 9 9 10 10 12 13 14 15 21 30 37 48 66 65 38 33 34 
33 30 28 26 26 25 25 28 36 48 58 65 30 14 9 7 7 7 7 7 8 8 7 7 33 93 71 45 28 
38 70 63 31 7 7 7 7 6 6 6 5 6 6 6 6 6 6 7 7 7 6 6 7 9 9 9 9 10 11 12 12 17 27 
31 33 42 48 34 30 30 30 28 26 25 24 23 25 29 34 48 76 89 50 24 12 7 6 7 7 7 7 
7 7 6 37 86 88 131 126 100 107 78 29 7 7 8 8 8 8 7 6 6 6 6 6 6 6 7 7 6 6 7 8 9 
10 9 8 9 9 10 9 10 18 26 29 29 33 31 30 27 27 27 24 22 21 23 29 31 37 60 88 89 
65 41 24 11 6 6 6 6 6 7 7 5 29 81 85 122 116 88 88 59 23 8 8 8 10 10 9 8 7 8 7 
6 6 6 7 7 8 7 8 9 10 11 11 10 9 9 10 11 9 8 11 18 25 25 25 27 28 26 26 25 22 
20 20 24 30 32 40 63 86 91 71 57 50 28 10 5 5 6 6 6 5 5 25 62 69 75 77 77 75 
54 21 10 10 10 11 12 12 11 10 10 10 8 8 8 8 9 9 10 10 11 13 13 13 11 10 10 11 
11 10 10 10 16 27 31 27 26 25 23 22 22 21 51 50 24 26 33 48 59 74 88 80 71 73 
60 31 11 6 5 7 7 8 19 38 47 57 64 62 68 63 50 22 10 10 12 13 13 14 14 13 13 13 
12 12 12 10 9 9 10 12 13 15 15 13 12 11 11 11 31 36 28 43 38 37 39 37 39 40 36 
23 22 48 68 58 29 32 46 77 81 82 83 81 78 78 77 71 69 57 35 11 9 13 28 51 51 
52 58 69 82 68 44 26 9 10 12 13 14 15 15 15 15 13 12 12 12 11 10 10 11 12 14 
15 14 13 12 12 11 26 78 52 32 49 39 43 46 36 45 57 73 65 60 70 58 51 43 39 78 
79 67 81 81 82 83 84 87 87 89 90 97 63 17 14 47 85 82 86 117 154 160 112 44 30 
8 9 10 11 14 16 16 17 15 17 14 12 11 11 11 10 11 12 14 15 13 12 11 11 12 41 39 
34 38 37 33 38 40 42 48 53 67 77 73 63 58 50 58 73 85 65 40 52 74 83 85 86 87 
86 88 87 95 97 67 46 152 192 186 210 237 236 215 161 64 51 8 7 8 10 12 15 18 
17 24 61 54 26 14 9 8 8 10 12 14 15 11 9 8 10 26 40 36 34 43 51 44 39 41 50 48 
57 61 72 71 56 59 57 57 64 65 52 39 40 61 80 82 87 87 92 93 92 94 80 96 39 182 
255 242 246 255 253 247 214 132 121 10 9 8 9 11 14 19 18 33 105 127 103 78 43 
18 14 11 12 13 12 15 22 20 20 33 38 41 40 46 57 56 54 57 59 65 68 73 77 69 55 
54 55 63 71 46 41 44 52 61 64 76 88 84 90 92 91 93 89 98 64 128 255 253 251 
245 247 232 190 205 213 13 12 10 8 9 13 17 18 26 90 132 141 143 112 62 36 22 
11 10 19 53 76 60 57 42 37 41 48 58 65 60 68 68 61 68 77 77 77 64 53 52 55 57 
72 58 45 46 52 64 52 70 76 83 93 90 94 95 96 92 59 58 207 253 252 244 246 227 
164 227 241 17 16 13 11 10 12 16 16 21 74 121 129 131 120 103 80 55 36 33 60 
80 67 57 69 55 46 51 58 60 60 60 62 58 54 52 62 83 76 60 63 72 64 61 73 65 56 
48 46 49 46 55 60 80 101 91 93 98 91 101 52 21 155 252 252 251 252 254 205 235 
243 20 20 17 15 12 13 16 17 21 71 110 113 120 116 122 120 110 72 66 74 67 54 
59 73 64 55 54 44 49 61 63 63 55 48 49 53 57 66 68 68 75 64 51 65 65 69 50 48 
45 43 42 47 77 99 95 92 96 102 113 71 17 153 255 254 252 240 253 250 238 242 
22 21 20 18 17 17 18 19 22 60 88 92 103 94 79 69 72 70 67 70 67 50 62 70 60 50 
48 44 54 66 63 65 55 45 51 70 51 48 53 56 54 50 52 62 71 81 66 50 43 40 39 40 
64 93 84 90 101 100 91 55 33 203 255 255 223 184 207 238 207 209 21 21 21 20 
20 19 20 20 20 32 52 64 73 58 44 32 63 83 72 76 65 44 53 55 52 46 46 48 57 66 
76 81 78 74 78 74 55 53 67 69 58 46 51 65 65 57 53 62 45 36 37 35 49 95 103 
104 106 93 84 83 68 148 180 133 103 103 125 161 194 161 20 20 20 19 20 20 21 
22 21 20 25 41 66 70 66 45 52 70 82 72 48 36 53 63 57 44 49 51 59 72 64 69 73 
75 78 72 73 70 81 73 63 73 59 63 57 49 48 68 52 54 55 46 41 87 116 111 108 91 
83 56 49 54 43 53 72 93 98 90 120 125 20 20 19 19 20 20 20 22 22 21 21 29 53 
87 94 83 69 58 76 63 41 35 56 71 74 65 47 53 66 71 73 78 74 72 79 87 96 73 56 
43 55 73 62 52 47 37 38 60 63 74 78 67 45 72 120 111 102 87 78 27 44 59 71 82 
84 89 94 83 115 135 20 20 20 20 20 20 21 22 22 21 20 32 65 82 102 89 78 70 62 
52 37 43 55 61 61 75 58 57 71 77 77 79 73 69 80 100 81 53 33 23 39 48 64 52 50 
41 47 67 64 79 78 72 50 55 125 113 96 87 59 21 60 80 82 76 75 79 85 89 103 88 
21 21 21 21 21 21 21 20 27 34 35 52 81 76 70 84 89 75 62 51 37 50 52 51 62 64 
67 62 72 87 80 65 62 61 65 62 61 51 63 64 57 78 64 60 64 74 77 70 60 74 77 74 
52 48 129 106 89 87 35 25 61 72 69 68 72 76 77 90 84 49 22 22 22 22 22 22 20 
28 56 60 54 68 90 115 123 61 55 78 68 58 44 49 69 49 59 64 65 65 71 73 83 75 
78 81 60 70 68 81 106 101 76 58 64 65 63 79 83 67 61 72 79 75 56 42 120 95 87 
81 16 24 59 70 61 64 69 72 74 81 72 43 20 22 23 23 23 21 28 51 58 44 64 115 
185 215 196 114 59 78 87 69 60 46 51 66 53 70 67 62 67 60 55 81 87 100 95 76 
74 83 93 87 63 67 62 58 66 69 68 58 64 73 78 75 60 44 108 94 87 54 11 15 44 60 
56 60 65 66 60 49 28 24 18 20 23 25 23 30 54 56 41 54 96 147 174 167 127 61 37 
50 92 100 79 63 49 53 56 70 70 63 65 52 44 53 56 88 81 63 80 72 67 77 72 71 65 
64 68 70 69 60 63 71 75 74 60 59 99 86 87 29 20 13 24 49 52 55 60 54 47 40 33 
35 14 15 21 23 30 49 49 36 46 78 97 100 95 90 76 39 25 30 54 98 114 86 51 45 
52 58 54 61 61 50 50 51 47 67 61 52 68 76 79 79 80 73 64 65 69 71 65 60 61 66 
72 71 58 82 92 86 57 9 13 9 23 41 45 50 55 52 47 45 44 43 9 11 16 19 34 41 26 
35 62 78 77 72 70 72 64 35 26 28 63 85 107 114 50 45 50 57 53 52 58 51 50 51 
52 56 51 56 78 81 78 79 80 73 61 64 70 73 64 57 59 59 58 57 60 94 86 87 18 6 8 
24 101 56 44 57 60 54 52 46 46 50 7 7 10 14 28 32 33 64 79 71 69 69 74 72 51 
30 28 28 49 83 96 65 51 51 58 56 50 47 65 54 51 50 53 59 61 72 78 70 68 76 73 
64 61 66 73 77 65 54 53 53 49 48 75 88 86 40 9 7 16 107 145 57 44 62 59 50 50 
49 49 56 7 7 8 11 19 26 44 87 91 67 69 78 71 53 33 27 28 29 35 75 72 60 60 56 
63 50 46 50 63 48 49 52 53 58 68 74 69 75 82 72 64 63 65 69 72 72 62 47 45 45 
40 42 92 85 59 14 7 11 69 136 87 25 42 58 51 48 54 55 53 64 12 12 11 14 18 22 
33 64 80 58 51 56 45 32 28 29 30 36 41 58 64 64 58 53 59 44 41 60 72 41 44 50 
59 66 70 69 81 80 56 61 63 66 69 71 70 71 60 43 37 35 29 52 92 63 36 9 17 67 
82 72 20 14 43 57 50 52 56 60 61 73 19 20 20 20 22 25 26 35 42 36 26 23 24 27 
31 32 36 46 39 51 64 62 58 56 58 44 35 48 60 61 60 61 69 72 67 50 43 46 59 71 
68 67 67 68 69 69 54 37 31 27 24 64 54 43 37 38 101 64 24 11 8 13 44 60 56 58 
57 66 77 67 27 28 28 27 28 29 30 29 29 28 26 19 16 20 25 28 44 61 56 44 54 60 
57 57 58 46 29 39 47 56 68 68 71 72 58 38 36 42 60 72 74 70 67 65 62 53 37 30 
27 23 23 44 38 39 50 79 27 7 10 9 10 12 46 66 63 62 62 74 74 50 30 31 31 31 30 
32 32 31 31 31 31 26 17 14 15 16 19 53 76 51 48 56 56 56 56 45 27 29 44 61 75 
58 44 43 34 34 35 36 42 57 72 72 66 54 41 31 26 25 23 19 28 37 39 41 36 16 7 11 
18 11 10 11 46 67 64 65 73 78 50 48 31 31 31 31 31 31 32 32 32 32 32 32 23 15 
13 12 13 40 80 79 55 51 55 57 58 56 42 46 65 74 59 35 31 27 23 25 27 28 30 35 
44 49 43 33 28 25 23 22 20 20 33 34 39 42 49 39 20 33 19 10 10 12 47 67 64 69 
78 53 49 48 31 31 30 33 32 33 32 33 33 32 33 33 31 21 13 12 30 49 66 96 69 58 
60 64 67 71 70 73 74 69 55 34 28 26 24 24 23 22 22 22 25 28 29 26 24 23 21 21 
18 22 32 34 39 38 23 27 38 19 11 11 10 11 39 67 66 76 58 45 53 46 31 31 32 31 
31 32 32 32 33 33 33 33 30 30 25 12 25 36 42 55 58 59 56 56 63 66 68 68 68 68 
56 33 24 24 26 25 24 23 22 23 22 22 22 22 21 20 19 18 17 23 34 37 38 36 33 31 
24 12 10 11 10 10 28 62 73 64 43 47 52 42 31 32 33 32 32 32 32 32 33 33 32 28 
41 90 110 49 11 10 11 11 18 40 60 61 65 66 66 64 61 61 62 41 25 24 25 25 24 23 
23 23 22 21 21 21 20 19 18 17 15 21 38 39 36 27 19 11 13 15 12 10 10 10 21 60 
75 45 41 46 46 39 31 32 32 32 32 32 32 33 33 32 29 56 162 246 255 197 75 15 11 
10 7 17 84 64 63 67 65 65 61 58 64 49 28 24 24 24 23 23 23 23 21 20 19 19 18 
18 17 16 14 19 39 33 19 11 8 8 8 11 15 10 8 9 16 61 61 35 40 44 44 37 32 32 32 
32 32 32 33 33 33 32 37 136 255 255 255 251 214 90 18 10 17 83 221 204 81 49 
54 59 60 60 62 51 29 25 23 23 22 22 23 23 20 18 17 17 17 18 17 14 12 20 29 13 
9 10 10 10 9 9 12 14 9 6 15 68 46 31 34 39 45 30 32 32 32 32 32 32 33 33 33 31 
32 111 239 251 243 242 251 180 39 16 77 210 250 255 253 132 45 42 56 56 59 44 
29 25 24 23 22 22 22 21 18 17 17 16 16 17 17 16 18 24 10 8 9 9 9 9 9 9 9 12 13 
7 17 55 28 29 28 36 44 19 33 33 33 33 33 33 33 34 33 38 97 202 255 254 242 241 
251 171 41 46 152 253 254 253 255 255 197 63 40 51 54 40 28 25 24 23 21 20 20 
18 18 17 16 17 17 18 19 21 45 37 7 9 9 9 8 8 8 8 7 8 11 11 16 21 19 27 24 35 
39 12 33 33 33 33 33 32 33 34 33 54 190 255 255 248 202 201 218 160 110 154 
226 255 254 252 252 252 255 250 106 38 46 44 32 25 22 21 21 21 19 18 19 18 18 
17 19 20 21 21 52 23 7 9 9 9 8 8 8 8 7 8 8 9 10 10 12 20 23 36 33 9 33 33 33 
33 33 33 33 35 34 43 152 254 255 243 210 209 201 170 199 248 255 254 252 252 
252 251 251 252 255 175 59 34 28 23 21 21 22 22 21 20 20 19 18 17 13 20 24 26 
42 11 9 9 9 9 8 8 8 7 7 7 7 8 8 12 13 10 15 31 25 8 32 33 33 33 33 33 34 35 35 
43 140 251 254 252 228 186 171 193 241 252 254 252 252 252 252 251 252 246 253 
255 249 147 57 25 16 16 18 20 19 19 19 18 18 28 15 12 15 39 27 9 11 11 11 11 
11 11 10 9 8 7 6 7 7 8 14 15 10 17 18 9 31 32 34 33 33 33 34 35 34 42 156 254 
254 252 229 159 134 210 255 254 253 252 252 252 252 252 252 248 252 254 255 
255 255 230 179 136 25 17 20 20 20 19 19 31 16 13 16 33 26 15 12 11 11 12 12 
13 12 12 11 11 9 7 7 6 7 14 15 14 15 10 31 32 35 34 34 35 34 34 35 60 161 241 
239 214 176 136 135 197 248 252 252 253 253 251 251 250 252 252 241 219 247 
254 254 254 251 198 34 18 20 19 19 18 18 17 19 29 30 22 22 21 17 13 12 12 12 
12 12 12 13 14 13 12 11 12 23 24 15 18 22 12 
