P3
70 46
255
 48 47 45 50 48 46 54 50 47 56 51 46
 58 51 45 57 50 45 56 48 45 57 49 46
 56 48 45 56 48 45 55 47 44 53 45 42
 52 44 41 53 45 42 53 45 42 49 45 39
 49 46 39 52 49 42 55 52 45 57 54 47
 63 58 47 70 63 51 74 66 52 76 65 50
 78 66 50 85 65 50 116 68 52 154 67 51
 180 65 53 197 69 61 224 68 71 237 67 70
 246 61 66 241 60 64 214 64 59 184 63 47
 178 63 45 173 64 45 163 65 43 152 64 43
 146 63 46 145 61 44 146 61 43 147 61 42
 149 63 46 153 63 51 177 66 51 187 68 54
 149 70 57 82 58 47 58 53 51 55 50 49
 55 50 47 54 49 46 51 48 44 47 47 45
 48 47 45 51 44 45 54 43 45 80 55 56
 130 73 71 157 98 110 140 124 166 108 112 165
 80 72 110 82 76 97 117 119 124 149 154 144
 122 124 108 89 86 83 47 46 44 48 47 45
 53 48 45 55 49 45 56 49 44 56 48 44
 54 47 44 56 49 45 56 49 45 56 49 46
 55 46 44 52 45 42 52 44 42 54 47 43
 54 46 43 51 47 42 51 48 42 52 49 43
 54 51 45 55 53 48 62 56 45 69 61 50
 72 63 49 73 62 46 75 64 47 77 68 51
 105 69 52 140 64 46 166 60 45 186 71 60
 220 68 71 235 66 69 252 60 65 247 60 64
 209 65 59 177 63 45 176 63 43 173 63 44
 162 64 43 151 63 43 145 62 46 144 61 44
 145 61 42 144 59 42 145 62 45 152 62 51
 186 64 52 200 68 56 147 72 59 68 55 44
 57 53 53 57 51 49 54 50 47 54 50 46
 49 49 45 45 49 46 48 48 46 53 47 46
 50 42 44 69 50 49 120 65 53 148 89 92
 134 125 171 99 108 172 74 62 107 75 64 92
 93 94 103 128 134 126 108 112 95 89 87 83
 44 44 44 44 45 43 48 47 44 49 46 43
 50 44 40 50 45 42 48 44 43 50 44 43
 50 43 43 50 44 43 50 44 43 49 44 43
 49 44 41 51 45 44 51 45 44 51 47 44
 51 49 44 52 48 44 53 50 45 55 53 48
 58 51 44 62 54 45 64 54 45 67 56 45
 72 59 47 69 69 53 85 68 52 109 61 43
 132 57 40 159 69 52 192 72 61 220 69 64
 246 60 62 236 62 61 185 65 48 165 64 42
 169 63 45 165 62 45 155 63 44 145 62 41
 142 62 44 140 61 45 139 60 45 137 59 46
 137 63 47 155 66 49 195 64 56 195 71 68
 137 87 78 60 63 53 59 52 49 57 51 46
 53 51 46 49 52 47 45 52 46 44 52 48
 47 51 47 49 50 48 48 48 46 51 45 43
 73 46 33 108 77 78 138 135 189 107 113 198
 72 61 127 61 49 88 53 52 72 62 70 70
 73 83 73 89 90 79 44 45 47 43 45 47
 46 45 45 47 45 41 47 42 39 45 43 40
 44 42 42 44 42 42 46 43 43 46 43 43
 46 43 43 47 43 43 47 45 45 48 44 44
 48 45 46 47 45 42 50 46 44 50 46 43
 50 45 44 51 48 46 56 50 47 60 52 47
 62 52 47 65 53 45 70 57 49 72 62 55
 81 60 53 95 55 48 121 55 45 147 59 47
 163 65 51 188 69 57 222 69 64 218 72 65
 167 66 47 155 64 44 158 62 45 156 61 47
 148 61 45 140 61 43 136 60 43 135 60 44
 133 60 46 130 60 50 134 67 55 157 71 58
 186 69 64 180 103 95 143 138 121 87 101 87
 67 66 56 55 53 43 47 49 42 46 49 43
 45 48 44 45 48 47 47 48 46 48 50 46
 47 50 46 47 45 50 52 42 44 103 99 98
 154 157 206 126 135 208 105 112 158 89 92 111
 96 112 114 130 150 140 124 143 129 95 101 81
 44 47 50 43 47 50 46 46 48 45 46 45
 45 43 41 44 42 43 43 41 43 40 39 40
 42 42 43 44 42 43 44 42 43 42 41 41
 42 40 41 45 43 44 46 45 46 47 44 43
 48 44 43 46 42 41 47 43 43 48 45 45
 56 49 49 60 51 50 59 50 49 62 48 46
 65 50 47 65 55 51 66 58 54 75 54 50
 104 55 47 137 61 48 149 62 53 152 65 51
 175 68 55 186 71 60 158 63 51 146 63 44
 148 61 43 149 59 45 142 60 45 135 59 44
 135 57 41 130 57 42 127 58 46 127 63 55
 134 71 64 151 69 62 174 85 82 163 145 123
 140 171 140 114 129 112 83 90 71 60 64 51
 48 49 40 45 41 39 50 44 43 50 44 43
 48 44 42 48 45 43 48 47 43 50 42 49
 48 41 40 101 113 82 149 161 156 143 165 163
 166 202 179 164 199 176 143 182 151 153 186 152
 133 161 132 89 100 74 46 48 46 47 47 45
 47 49 46 50 49 46 51 48 45 51 47 44
 50 45 42 45 42 43 44 43 44 42 41 45
 43 40 44 45 39 44 43 40 41 44 42 41
 45 45 43 47 45 44 46 43 42 47 43 41
 52 44 41 54 47 42 59 51 46 61 52 48
 59 49 45 59 47 46 62 47 46 62 51 44
 53 57 47 57 51 44 79 44 39 105 58 45
 131 65 49 142 64 49 146 59 45 152 66 50
 148 62 50 147 60 47 137 61 46 137 63 47
 139 60 47 132 57 44 123 59 44 118 58 42
 125 59 48 134 71 59 135 75 68 149 81 79
 147 129 112 144 169 139 137 173 142 119 150 121
 92 123 90 78 94 71 61 58 51 50 39 40
 47 39 41 45 40 43 48 40 44 50 40 47
 49 43 48 48 42 48 43 39 31 91 102 64
 145 162 118 140 170 118 160 201 140 157 195 147
 132 175 126 135 173 130 118 142 112 79 91 68
 50 51 45 51 52 45 53 51 46 57 54 49
 57 54 49 58 50 46 56 48 45 51 46 44
 51 48 48 45 46 48 47 40 47 49 41 46
 47 42 44 49 46 42 49 48 42 48 49 46
 47 48 48 52 47 43 59 49 43 65 53 44
 67 56 47 65 57 48 61 53 45 59 48 47
 60 49 47 69 49 45 82 41 46 70 42 46
 55 48 41 82 47 40 106 57 46 131 58 55
 134 57 52 127 63 53 132 66 54 137 65 49
 133 62 45 136 58 43 133 59 42 118 62 41
 118 56 44 115 57 45 123 64 52 137 71 62
 136 78 69 134 100 86 122 146 113 123 175 136
 131 177 140 118 158 124 101 146 103 100 135 101
 80 102 80 52 61 48 42 38 35 46 36 38
 43 42 42 41 43 44 39 43 47 39 39 45
 41 36 34 87 92 72 126 145 106 123 156 106
 126 163 111 127 165 111 125 165 116 126 161 123
 111 137 108 76 86 68 55 56 50 55 56 50
 57 57 52 60 58 53 64 61 56 66 58 56
 65 57 53 61 55 51 60 55 53 58 53 52
 57 48 48 57 47 47 54 49 46 54 50 46
 54 51 46 54 52 49 57 55 51 63 55 50
 66 57 48 72 61 49 74 62 52 72 61 52
 66 56 48 64 54 49 63 54 50 60 57 52
 67 53 52 65 53 48 60 54 42 69 53 39
 99 54 45 135 61 59 144 66 65 132 67 59
 132 62 54 127 65 53 126 58 47 121 59 47
 117 62 46 122 52 41 185 80 76 172 91 86
 112 74 57 107 83 64 115 96 73 127 122 88
 182 102 96 191 122 114 162 161 133 143 160 126
 139 151 118 128 158 120 111 147 111 88 105 77
 63 59 41 51 41 34 37 43 33 43 47 38
 58 38 42 67 41 41 84 78 58 104 113 82
 104 131 87 107 145 92 110 154 99 107 152 104
 115 156 116 116 149 116 104 134 100 78 88 67
 56 57 51 57 58 52 62 62 56 65 63 58
 68 63 58 70 65 60 69 65 58 69 64 58
 71 63 56 69 61 52 68 59 49 67 58 51
 67 58 51 60 56 48 57 53 47 57 52 47
 60 55 48 66 60 48 73 61 48 79 65 50
 80 64 53 75 60 52 69 58 49 65 58 49
 61 60 51 71 55 48 139 69 74 154 71 73
 134 67 58 171 75 72 162 70 57 166 63 51
 168 67 53 162 69 49 170 64 50 172 62 66
 158 67 69 118 67 57 121 58 52 191 60 72
 225 69 71 195 85 80 112 89 67 96 106 72
 144 108 83 232 83 90 255 40 72 255 41 75
 249 64 86 240 77 95 228 89 104 219 102 110
 212 106 114 210 95 109 212 87 107 194 80 98
 150 70 79 82 46 40 62 51 40 71 64 45
 101 94 58 119 131 92 110 135 92 109 137 89
 115 143 100 126 152 123 140 162 142 128 150 129
 100 125 95 83 95 71 54 55 49 54 56 49
 61 61 56 66 64 59 70 65 63 72 67 62
 72 67 62 74 68 60 77 66 55 74 61 48
 72 60 45 70 61 47 69 59 48 65 57 49
 60 55 49 58 55 46 62 57 44 69 60 47
 77 63 47 79 65 48 79 62 49 75 59 49
 68 58 47 62 61 49 55 61 48 128 66 64
 237 75 93 203 51 53 155 59 35 193 63 53
 172 59 48 179 62 51 183 68 55 165 58 40
 185 62 50 209 62 56 239 56 63 225 60 60
 212 68 63 235 55 59 218 46 39 196 66 58
 146 100 79 136 99 74 222 99 94 247 59 69
 224 66 67 245 70 79 254 46 69 255 44 72
 255 48 84 255 52 92 255 58 104 255 58 111
 255 65 114 255 71 111 255 90 120 198 91 102
 97 61 51 72 67 47 127 118 100 154 159 149
 145 158 152 152 160 154 182 181 173 209 203 198
 212 204 211 176 177 177 103 123 101 87 103 76
 51 51 48 53 53 49 56 56 51 61 60 54
 68 67 57 71 71 62 74 73 59 77 73 54
 73 69 55 77 72 74 72 64 57 69 59 43
 67 57 45 63 56 48 62 56 51 61 55 49
 62 57 52 64 61 57 73 65 54 80 64 45
 72 63 45 75 56 49 67 55 52 53 61 48
 64 63 47 166 73 64 175 52 43 164 52 33
 166 65 38 169 58 36 160 54 39 169 61 50
 172 65 49 176 64 50 191 64 52 204 56 41
 232 49 43 249 43 43 243 48 41 225 54 37
 216 53 33 199 57 44 197 85 73 224 85 81
 254 65 75 223 63 65 174 59 46 196 69 59
 236 65 68 252 62 72 253 65 81 255 61 86
 254 62 104 251 62 113 252 69 119 249 74 110
 253 87 120 255 89 127 205 93 110 135 110 100
 211 200 193 224 224 234 230 214 240 245 225 249
 253 243 249 253 244 243 245 231 240 211 206 210
 133 141 131 117 129 110 49 48 45 47 46 44
 52 51 47 56 57 50 62 63 53 71 68 59
 79 75 56 77 75 52 88 87 87 128 131 165
 124 120 160 91 84 111 70 63 79 57 52 52
 54 50 38 53 50 41 58 57 46 66 61 45
 75 64 47 80 64 47 67 59 42 58 52 41
 48 52 48 66 49 45 138 54 60 174 59 47
 164 60 39 161 59 37 181 62 44 199 61 49
 184 59 49 173 57 42 179 58 43 195 63 50
 196 51 42 214 52 44 220 56 46 241 49 43
 240 47 40 212 53 32 218 52 33 212 57 44
 208 63 54 219 67 65 222 65 62 199 62 51
 174 57 40 175 61 45 213 69 64 243 70 75
 247 68 75 254 68 88 254 66 98 255 74 116
 255 75 125 254 77 122 254 84 116 243 67 99
 228 123 136 137 95 84 241 211 201 255 255 255
 255 245 255 255 248 255 255 255 254 255 254 251
 255 249 253 242 233 236 192 191 184 181 186 176
 58 56 49 54 51 45 51 48 43 55 52 44
 60 59 50 73 65 54 86 74 57 84 72 58
 100 97 114 158 165 228 172 178 255 157 161 236
 143 143 197 110 109 142 76 73 88 64 63 77
 60 57 57 65 61 40 66 67 46 56 65 57
 58 69 81 69 85 97 70 83 82 97 71 60
 148 70 55 168 61 43 174 65 45 176 59 40
 191 54 42 212 56 48 210 58 52 206 56 50
 211 58 51 215 59 50 223 63 55 235 49 39
 244 45 40 249 45 40 235 50 40 210 55 33
 207 55 34 209 53 40 217 67 60 221 86 77
 186 62 50 179 58 35 185 58 41 198 64 55
 210 72 70 216 71 72 237 70 74 251 79 92
 248 70 96 253 74 110 252 82 122 247 88 122
 253 85 113 249 83 103 255 96 112 213 75 85
 225 170 164 255 255 254 252 255 255 253 253 254
 254 250 245 255 250 249 254 240 244 234 220 219
 239 230 219 235 237 228 68 64 53 65 61 51
 59 54 45 53 50 40 58 53 47 70 61 55
 84 71 54 87 70 55 93 85 106 144 153 222
 171 184 255 181 190 255 185 190 255 167 167 239
 128 124 194 102 92 158 82 76 115 55 58 67
 58 57 55 82 74 78 134 115 155 170 129 174
 186 93 123 200 75 80 179 60 39 169 57 35
 179 58 42 193 59 45 212 60 51 225 59 51
 219 54 49 229 62 57 230 60 55 220 56 47
 227 68 57 244 63 52 251 41 41 250 43 43
 227 50 44 207 50 37 201 60 40 208 58 42
 212 55 45 228 76 72 209 67 64 187 57 36
 191 57 40 199 62 50 211 81 73 196 69 62
 224 78 73 231 81 83 240 84 97 253 86 110
 251 78 111 253 85 120 255 87 111 255 90 105
 252 87 101 202 79 84 161 116 110 250 225 224
 252 255 255 250 255 255 254 249 247 255 250 245
 250 239 240 220 206 201 249 242 224 249 251 238
 79 73 59 77 71 58 70 64 53 63 57 48
 61 54 48 65 61 56 77 69 53 83 68 46
 87 76 83 132 142 193 166 174 251 176 178 255
 178 180 255 169 172 249 156 160 237 139 141 216
 111 122 182 97 101 135 133 78 95 203 79 87
 239 76 93 220 72 82 210 59 62 230 62 62
 206 62 53 188 62 47 198 63 50 212 62 52
 217 57 47 219 51 43 218 55 47 222 56 47
 217 51 41 209 51 36 202 57 34 219 62 48
 254 56 59 247 48 53 219 50 48 223 53 52
 239 53 51 226 55 43 217 62 47 227 80 74
 220 69 73 208 61 51 194 56 43 188 60 45
 192 67 50 188 61 45 199 72 61 206 78 74
 230 92 97 254 102 118 253 80 109 250 90 117
 241 114 120 243 98 112 238 123 128 146 117 101
 86 80 65 224 195 196 255 253 255 253 254 255
 255 252 254 253 255 248 255 255 250 237 231 220
 250 248 222 251 252 233 87 78 63 86 77 63
 80 73 58 75 66 52 70 60 49 69 64 55
 76 71 53 83 71 46 86 78 81 131 139 189
 163 164 246 164 164 255 164 173 255 164 173 240
 174 173 246 160 175 254 161 171 224 186 118 141
 222 65 78 239 60 63 229 59 55 202 64 49
 209 70 59 237 61 65 224 57 60 204 64 58
 199 69 57 187 54 40 200 50 43 220 52 49
 222 59 47 223 55 41 211 52 33 196 54 33
 198 55 38 206 53 41 214 53 43 228 56 46
 233 52 50 235 45 53 247 42 48 228 49 41
 203 53 36 217 76 65 218 72 73 223 77 75
 199 56 46 193 58 40 187 59 39 183 59 42
 180 60 47 187 64 51 226 94 86 247 110 109
 246 103 112 241 103 113 237 116 114 251 111 117
 255 122 139 136 151 124 65 81 51 221 196 192
 255 255 255 255 254 255 251 255 254 238 255 240
 255 255 249 255 254 241 254 248 226 253 250 234
 91 80 65 91 79 65 89 77 63 84 74 58
 84 71 57 78 71 60 82 74 57 87 75 52
 88 81 84 127 128 170 148 151 212 149 151 228
 153 162 236 148 159 216 136 144 208 135 133 190
 197 105 149 230 61 80 226 64 58 231 62 67
 225 63 70 195 62 59 214 71 70 232 62 65
 215 63 59 196 61 49 192 63 48 185 59 43
 205 58 46 228 57 51 224 51 47 228 52 46
 209 56 42 186 59 43 198 59 54 233 60 57
 201 57 37 194 57 33 207 51 38 212 53 47
 207 55 43 200 56 38 201 61 41 219 62 53
 232 64 66 237 85 83 221 71 61 199 57 41
 183 58 42 175 60 45 172 60 46 175 58 42
 209 86 71 240 109 106 233 97 103 241 98 109
 250 110 113 255 100 108 248 87 112 117 136 105
 88 110 69 241 229 212 255 255 255 255 255 255
 226 249 230 197 235 200 226 239 213 253 248 230
 244 230 214 242 232 221 91 78 62 90 78 62
 91 78 61 88 77 60 90 76 60 87 75 63
 88 76 60 90 76 56 85 76 71 100 95 117
 119 120 154 130 128 186 137 134 205 123 123 182
 102 109 166 124 82 98 220 59 70 255 51 63
 233 69 62 238 67 78 220 66 71 182 64 53
 198 67 59 209 52 49 198 66 53 189 59 41
 190 57 37 193 58 37 212 56 40 229 52 43
 247 49 51 255 44 51 251 45 49 243 46 56
 251 40 62 246 40 48 211 48 39 205 56 40
 228 59 50 232 61 52 208 68 54 192 54 38
 202 53 41 227 55 53 229 46 47 214 52 42
 206 53 42 212 74 62 184 62 49 169 54 42
 168 58 43 166 55 38 188 72 62 238 113 114
 247 115 126 250 114 123 253 115 123 254 86 101
 249 68 97 152 160 125 125 154 103 203 204 174
 212 226 198 175 202 170 149 184 142 143 188 134
 168 199 154 206 213 186 238 222 212 221 203 197
 91 76 60 91 76 60 92 76 60 89 73 59
 90 75 59 91 76 62 94 77 60 94 80 60
 91 78 65 89 76 73 94 83 100 109 101 155
 135 127 196 155 126 180 171 113 163 181 64 71
 201 62 43 232 64 57 252 60 64 233 66 74
 191 60 55 166 57 40 199 66 56 221 59 56
 207 68 58 186 55 36 196 59 40 201 56 39
 218 52 39 238 57 46 227 52 39 238 44 36
 245 41 39 248 37 50 255 22 54 243 39 54
 237 60 68 237 49 58 254 48 58 243 43 46
 223 56 53 232 71 71 217 54 52 221 59 54
 213 53 42 196 56 38 195 56 43 219 81 71
 201 60 51 205 57 49 208 58 51 191 56 43
 179 56 45 231 107 107 255 129 137 253 122 131
 255 114 127 255 77 100 249 63 92 130 134 94
 103 135 81 124 133 92 97 126 81 101 141 89
 121 161 104 134 182 116 141 185 121 148 172 127
 192 181 166 197 181 179 91 75 58 91 75 58
 89 75 58 89 73 57 91 75 58 93 74 60
 94 75 60 94 79 59 94 79 59 95 78 58
 95 75 72 97 87 119 124 119 155 194 135 155
 245 101 119 255 52 75 228 64 70 209 67 64
 239 66 71 218 67 64 178 59 46 164 56 38
 206 64 54 236 56 59 232 77 69 214 80 65
 194 54 40 207 52 42 228 54 48 238 49 47
 242 49 57 250 45 60 245 42 60 240 45 72
 249 46 87 248 81 99 254 92 109 238 56 79
 213 48 53 184 55 38 204 67 54 226 83 78
 215 67 64 203 57 46 194 55 36 167 59 37
 172 56 41 211 70 66 222 56 51 242 51 49
 250 48 48 229 57 49 190 52 39 217 92 87
 255 135 139 252 124 132 252 107 124 251 72 97
 243 62 85 89 97 55 101 128 78 129 139 100
 126 157 109 127 171 112 136 171 111 135 177 112
 130 185 111 133 170 113 181 182 153 195 191 190
 92 75 55 92 75 54 92 75 54 93 76 55
 93 76 57 93 76 59 94 77 61 93 80 61
 93 80 61 97 77 58 99 71 62 103 93 113
 127 134 181 179 135 166 246 117 113 255 75 85
 243 63 81 231 61 71 219 60 61 199 62 52
 169 59 42 180 62 47 209 56 51 222 51 43
 219 57 39 233 77 65 210 65 51 211 58 46
 236 55 57 247 50 62 252 34 47 255 32 45
 246 33 43 238 37 55 247 59 86 255 99 112
 241 78 83 203 58 53 161 54 36 135 45 24
 173 58 48 194 56 54 216 73 69 201 59 48
 199 56 43 180 56 43 193 56 47 222 74 64
 226 51 46 252 46 49 250 45 48 240 50 44
 201 52 37 197 77 69 255 143 144 255 123 136
 255 89 116 255 63 97 210 64 83 73 89 49
 112 149 91 133 166 111 131 170 113 124 165 102
 126 163 102 127 168 107 126 176 101 134 178 110
 156 182 137 150 164 151 94 77 58 94 77 58
 94 77 58 94 77 58 94 77 58 95 76 55
 94 78 57 86 78 65 97 88 89 111 96 109
 109 100 112 112 120 168 131 140 234 153 131 205
 185 118 124 232 100 92 253 77 85 242 57 65
 222 55 55 195 66 50 169 58 43 189 71 62
 197 66 57 202 54 43 222 54 39 227 52 46
 224 68 55 220 60 46 240 48 51 255 68 78
 245 67 71 230 47 45 225 44 40 222 50 51
 223 62 67 217 63 67 220 55 56 202 51 46
 210 79 74 212 79 81 202 73 71 233 85 85
 218 69 65 212 66 58 222 60 55 243 50 61
 245 55 63 232 62 58 220 49 42 243 50 48
 248 46 50 243 48 46 205 52 37 186 72 60
 255 147 149 253 113 129 255 70 104 255 60 100
 157 65 71 78 98 60 114 150 90 121 161 99
 117 159 96 118 157 95 122 161 100 123 166 100
 123 169 90 135 179 104 137 170 118 108 130 103
 95 79 61 95 79 63 95 79 62 95 79 61
 95 79 61 96 80 55 92 76 57 95 91 97
 125 124 160 129 125 178 113 118 184 124 134 198
 154 155 199 186 175 183 200 182 150 178 112 82
 198 76 65 240 72 74 232 55 57 213 58 50
 187 55 46 186 73 63 205 102 88 193 64 51
 218 50 43 228 49 44 225 61 49 228 55 41
 240 45 41 240 53 53 241 82 88 234 74 81
 235 81 86 236 86 91 213 64 66 234 57 63
 235 45 55 242 74 86 255 111 122 255 102 118
 231 82 78 215 53 51 220 65 60 220 69 60
 224 52 48 252 44 58 255 53 63 231 54 51
 221 52 42 240 50 47 251 46 50 245 47 45
 211 53 41 178 60 51 254 136 143 248 98 119
 255 62 99 244 65 100 92 59 47 76 95 62
 117 145 94 123 158 99 111 151 87 114 154 88
 120 158 94 121 163 91 119 166 86 128 171 97
 128 159 104 101 124 86 91 77 61 95 80 64
 95 82 66 96 82 67 96 82 64 92 79 66
 99 89 97 119 119 154 119 124 185 99 106 180
 122 122 214 175 172 219 228 225 182 248 242 164
 235 232 171 184 181 145 160 121 100 214 108 103
 246 87 90 234 54 58 218 54 51 189 58 49
 187 79 65 211 88 73 208 49 39 232 62 60
 226 64 55 224 48 37 233 45 39 219 51 42
 207 57 53 238 83 87 245 86 98 255 100 111
 251 97 103 246 47 55 246 40 54 247 70 83
 250 94 102 247 84 91 223 55 51 230 54 52
 221 56 50 214 56 48 228 58 53 231 59 59
 232 54 53 216 53 43 226 54 42 243 48 45
 250 47 52 246 48 47 218 57 46 185 56 50
 252 119 130 255 82 112 255 60 100 193 74 91
 61 60 38 65 74 48 104 126 83 116 148 88
 104 146 76 109 150 81 115 155 90 115 157 84
 108 151 77 98 138 69 78 106 52 73 97 52
 84 72 56 89 76 60 95 82 66 98 86 68
 96 83 63 102 93 98 123 121 158 116 122 180
 93 102 175 108 118 193 152 157 223 193 196 231
 216 215 215 216 211 200 194 183 188 131 135 136
 111 106 101 153 106 100 227 121 117 255 103 101
 244 68 65 221 61 53 194 60 49 199 66 50
 209 60 45 227 71 70 226 73 70 224 55 48
 227 54 48 203 57 43 186 58 38 201 61 54
 208 58 65 243 91 103 235 87 94 224 55 51
 246 66 73 234 63 70 230 55 57 247 53 54
 239 53 49 238 51 48 225 58 47 223 59 51
 232 54 53 234 55 56 233 54 52 219 54 45
 224 55 40 239 49 43 244 51 53 244 48 47
 219 52 42 209 68 66 250 104 117 255 59 100
 254 64 104 128 77 71 82 80 60 69 66 45
 79 95 57 105 135 76 101 142 68 103 145 75
 110 149 85 104 143 76 94 135 69 89 125 67
 87 111 66 91 115 68 68 66 54 74 69 60
 92 77 62 96 83 62 101 95 88 122 116 145
 115 112 167 93 95 161 105 105 187 139 136 223
 157 157 222 162 161 214 160 155 214 158 150 206
 149 137 193 112 103 125 94 86 82 124 83 72
 184 89 81 236 121 115 255 128 124 239 94 90
 201 54 45 190 53 35 202 59 42 213 58 48
 207 55 44 220 57 47 220 56 47 197 60 42
 194 64 49 197 61 52 193 55 51 217 80 76
 210 75 66 204 54 36 235 47 48 248 40 58
 252 39 63 255 31 58 255 35 56 243 46 54
 223 58 53 224 60 53 234 55 53 238 51 53
 228 52 48 219 55 41 220 57 38 229 54 38
 239 53 45 237 53 41 215 52 39 237 86 92
 255 80 107 255 56 101 205 64 88 57 53 35
 65 66 51 55 56 33 81 90 52 100 121 78
 95 132 65 99 140 68 108 144 78 104 141 71
 99 134 73 99 130 74 102 127 73 98 127 68
 52 55 45 58 58 52 79 68 59 86 76 61
 103 101 108 108 106 145 81 81 138 91 93 165
 121 123 206 137 137 221 140 139 209 136 133 205
 136 129 210 141 133 200 135 130 173 126 90 106
 92 91 76 112 87 68 207 83 86 231 102 107
 239 133 127 254 129 122 197 59 45 187 59 35
 198 59 41 214 54 43 204 59 43 203 54 40
 214 58 45 200 56 40 197 58 45 200 58 47
 202 58 48 206 63 53 200 58 46 214 49 39
 249 47 55 255 43 61 250 42 62 254 36 58
 255 38 57 240 53 61 218 58 54 223 59 52
 235 53 52 241 52 56 226 54 47 213 55 41
 217 56 38 218 54 36 215 57 38 212 59 37
 215 61 52 254 87 108 255 55 99 252 67 106
 107 51 61 35 47 37 47 52 29 94 89 50
 160 179 130 115 141 96 93 131 62 109 147 75
 112 149 81 107 143 72 105 139 77 101 132 74
 102 131 72 103 137 71 42 48 38 43 48 43
 57 55 53 69 67 61 90 92 105 92 93 135
 91 90 156 121 124 214 133 136 235 130 130 218
 129 133 202 131 130 210 139 130 219 141 134 194
 126 120 137 115 87 82 96 95 72 100 95 67
 174 87 80 236 90 99 243 110 106 217 75 64
 201 55 38 200 60 39 214 56 43 213 49 40
 197 62 43 191 58 40 219 71 59 206 57 43
 201 58 41 200 55 40 206 55 40 215 60 47
 218 59 48 238 54 59 249 49 63 238 45 59
 233 51 54 245 53 56 240 55 59 225 54 53
 219 56 53 227 58 56 239 55 56 246 54 59
 226 56 52 207 56 42 204 58 41 205 58 39
 194 61 33 193 60 38 233 75 77 255 66 103
 255 54 103 167 67 79 51 54 52 56 43 47
 68 78 41 165 185 121 182 213 154 113 144 92
 93 132 61 114 152 78 111 148 82 102 138 69
 103 137 77 101 136 75 102 137 71 107 145 74
 46 50 38 43 46 40 48 49 43 58 61 48
 76 79 78 88 86 109 110 108 159 146 143 234
 147 144 246 129 127 209 132 132 199 141 141 206
 142 133 191 129 119 147 108 97 93 94 93 71
 102 93 73 106 92 69 136 89 67 230 82 81
 235 61 61 220 48 43 219 55 38 211 55 38
 225 53 43 200 53 41 189 61 43 197 60 43
 218 68 57 194 56 41 196 58 40 202 57 40
 207 52 40 216 50 41 231 59 52 241 56 60
 236 47 58 236 69 74 239 86 81 234 65 61
 225 56 50 223 56 52 226 56 56 232 56 60
 237 55 60 239 53 57 220 59 54 192 56 41
 186 61 42 186 61 42 177 57 35 182 53 41
 255 80 96 253 61 95 203 73 93 75 64 49
 45 51 37 74 51 39 134 152 101 168 212 140
 143 170 124 75 99 57 96 127 61 108 148 73
 100 140 71 101 135 67 107 142 79 105 144 79
 102 143 69 112 155 80 64 62 48 62 61 52
 60 61 50 65 69 42 76 77 58 85 84 65
 101 99 103 132 129 183 145 140 212 127 122 175
 119 115 165 127 122 164 121 111 127 110 95 87
 108 89 71 104 92 75 106 94 78 127 95 79
 165 75 60 216 53 46 227 48 43 226 52 42
 215 56 36 202 61 36 215 57 44 185 59 41
 181 55 38 215 61 53 231 73 66 179 57 39
 186 58 41 199 57 45 214 60 52 227 59 55
 234 58 56 233 56 54 244 72 73 233 90 88
 205 67 61 218 58 55 223 57 50 228 56 52
 234 54 56 236 56 62 235 54 61 236 55 59
 214 63 55 182 59 43 167 59 39 164 59 40
 150 54 35 192 73 68 252 85 104 210 77 88
 130 93 79 51 57 34 70 79 41 117 156 95
 146 165 105 136 155 106 73 84 60 60 72 44
 103 126 67 106 148 70 97 140 69 107 140 75
 108 145 80 111 150 81 109 153 77 118 165 86
 85 77 62 86 77 63 86 78 63 86 80 61
 92 82 67 96 87 66 98 89 75 109 99 107
 119 106 124 112 100 109 93 87 91 87 85 82
 93 86 71 102 90 70 110 95 72 106 100 79
 136 90 79 173 82 71 174 58 44 203 52 43
 225 55 47 222 55 46 215 54 42 211 57 41
 213 58 44 184 60 43 167 53 34 194 57 45
 215 60 52 211 72 58 212 66 57 216 62 57
 231 60 60 238 54 56 229 59 56 197 61 50
 183 57 42 189 59 45 214 60 53 237 54 58
 232 54 58 230 56 54 229 57 50 230 57 54
 232 56 56 231 59 61 203 64 56 167 59 44
 153 59 40 141 56 36 132 54 39 204 89 90
 188 84 86 158 89 82 128 99 75 96 120 59
 157 182 113 118 152 89 79 93 59 59 61 46
 50 51 43 59 67 49 102 127 71 111 151 74
 106 146 77 109 147 82 106 148 71 113 158 75
 120 170 85 113 159 87 99 90 75 101 91 75
 101 91 75 100 91 76 101 91 77 103 95 74
 104 95 72 103 94 77 103 93 76 102 92 73
 96 90 71 81 78 61 76 72 55 83 80 62
 91 90 70 95 95 79 150 97 89 209 74 76
 211 52 48 183 61 41 205 58 42 218 57 43
 213 56 42 213 55 42 213 58 43 188 61 47
 151 53 30 170 63 41 193 55 42 209 57 47
 233 52 57 232 54 60 237 54 59 239 53 60
 214 54 52 173 56 38 167 57 38 181 58 41
 215 62 52 238 57 56 242 54 55 235 56 53
 229 60 51 224 62 57 218 62 62 201 64 59
 169 56 43 149 58 40 141 58 40 129 55 34
 126 58 42 166 82 74 149 84 73 143 92 83
 150 110 93 142 161 115 83 99 66 39 50 30
 53 56 49 55 54 47 57 57 48 57 67 48
 103 130 75 119 156 81 112 153 83 112 152 79
 111 153 73 120 166 85 119 166 89 96 139 74
 104 95 80 105 96 81 105 96 81 105 96 81
 104 95 80 107 98 84 106 98 83 105 96 80
 105 98 76 105 98 72 104 98 75 96 90 70
 76 74 54 64 69 52 64 72 56 67 74 62
 85 77 59 182 88 79 239 68 70 200 58 44
 195 55 37 210 56 41 209 58 41 209 58 40
 210 57 41 187 59 47 145 54 30 148 57 31
 187 56 42 218 59 53 238 64 69 211 62 59
 187 54 49 183 58 53 162 57 45 157 62 42
 159 65 43 165 60 39 183 54 41 211 60 53
 236 61 55 235 63 54 223 68 57 202 65 57
 178 56 51 152 56 42 140 56 39 132 60 41
 125 59 40 119 51 34 137 65 51 148 83 71
 145 90 78 150 89 83 137 89 77 65 77 43
 39 50 37 55 62 60 75 77 64 61 59 40
 55 58 47 56 64 45 104 130 75 118 157 80
 113 155 80 112 157 74 121 164 86 125 168 98
 98 140 73 96 136 76 105 96 81 105 96 81
 105 96 81 106 97 82 106 97 81 107 95 90
 107 95 95 107 97 86 107 97 84 107 97 88
 108 97 82 107 98 78 90 86 68 68 70 56
 60 67 53 53 67 49 63 67 41 150 90 70
 230 93 89 240 74 77 207 59 48 200 57 43
 206 60 48 210 61 49 212 62 50 206 64 58
 178 62 51 184 67 51 219 72 65 234 73 69
 209 69 65 160 61 47 142 70 50 132 67 49
 121 65 45 133 58 43 137 60 44 141 61 44
 150 56 42 163 58 46 185 59 48 192 63 49
 182 60 46 161 54 42 144 55 44 132 60 44
 127 59 42 123 59 44 115 57 42 118 53 40
 146 72 59 141 79 66 153 83 78 156 86 87
 145 111 95 102 118 73 71 86 52 94 107 81
 75 81 53 58 59 35 56 56 47 56 66 47
 105 131 76 119 157 80 112 156 78 114 162 80
 125 169 96 102 142 78 98 138 74 98 136 77
 105 96 81 105 96 81 104 95 80 108 99 84
 107 98 83 109 98 87 108 98 85 108 100 79
 108 100 80 108 98 86 109 98 85 109 99 84
 104 97 81 86 80 64 69 65 49 56 65 39
 132 75 64 192 62 64 216 78 79 247 105 109
 222 78 74 209 67 60 211 69 63 216 72 67
 222 73 70 228 71 75 224 76 75 231 73 72
 237 65 67 229 66 65 204 64 61 159 61 48
 138 65 50 133 60 49 129 58 51 127 59 50
 126 59 49 122 59 47 122 59 43 123 58 43
 134 56 44 143 56 44 148 56 40 137 58 42
 128 60 44 127 56 43 123 51 40 121 54 44
 112 52 41 118 61 49 133 81 64 137 84 71
 154 81 77 140 91 83 87 88 64 79 101 61
 96 118 70 67 87 45 54 64 42 58 60 50
 55 57 47 56 64 45 95 121 65 120 157 81
 112 158 81 119 168 89 106 149 83 92 132 71
 103 142 74 97 133 73 105 96 81 106 97 82
 108 98 84 106 97 82 106 97 82 107 98 83
 107 98 83 107 98 82 108 99 83 108 99 84
 112 98 82 112 97 85 102 95 82 102 97 80
 95 89 67 65 64 37 114 77 60 156 69 67
 174 66 67 193 79 78 203 76 76 210 67 66
 207 64 57 203 69 59 217 68 69 224 64 69
 225 67 69 226 68 67 227 65 62 226 66 62
 205 65 60 157 57 47 128 61 47 128 60 51
 136 56 50 133 59 47 129 59 46 127 58 45
 124 58 46 124 58 47 123 57 49 123 56 47
 124 57 46 122 58 46 120 57 47 117 56 46
 114 54 43 111 52 42 108 50 39 118 64 54
 136 84 76 148 81 77 147 85 77 121 101 79
 90 110 74 85 109 68 77 95 58 57 67 40
 56 57 44 59 61 51 52 59 48 56 57 41
 86 100 62 116 150 84 120 164 92 114 153 92
 90 130 67 95 135 73 101 141 76 92 128 71
 104 97 81 105 98 82 106 100 83 105 98 82
 105 98 82 106 98 83 107 98 83 107 98 83
 108 99 84 108 99 84 109 97 84 102 90 80
 115 112 105 163 160 152 180 175 165 125 123 106
 55 62 43 51 60 40 60 61 47 63 59 46
 94 66 53 165 72 69 213 65 69 217 62 60
 221 68 65 222 68 68 222 68 68 218 70 68
 213 70 63 212 70 61 216 68 62 176 61 52
 132 61 44 126 62 47 133 57 46 133 58 43
 129 58 43 127 58 44 126 58 47 126 58 48
 123 57 48 121 56 47 119 57 47 118 57 48
 116 58 46 113 54 45 110 51 43 107 52 41
 101 49 37 115 61 50 149 82 78 145 89 82
 127 95 82 95 92 72 69 83 59 50 63 41
 59 69 48 66 74 54 57 65 48 52 59 46
 52 57 53 55 56 44 76 87 51 114 149 83
 123 165 94 96 131 73 90 126 67 97 133 73
 97 133 75 88 124 71 104 98 82 105 98 82
 107 99 83 105 98 82 105 98 82 106 98 83
 107 98 83 108 99 84 108 99 84 107 98 82
 101 93 83 132 129 124 207 209 209 250 251 253
 255 255 255 244 221 213 160 145 124 67 74 50
 53 63 43 58 55 50 42 48 43 90 63 62
 205 127 127 206 88 85 222 57 58 225 64 68
 221 66 68 221 65 66 214 67 63 208 69 59
 221 66 58 191 66 56 141 59 44 127 61 44
 129 60 43 129 58 43 125 57 45 125 57 47
 125 58 48 124 58 49 119 58 51 115 56 47
 112 54 44 111 56 45 110 55 43 110 54 47
 107 52 44 103 51 42 96 46 36 112 56 47
 150 85 81 122 92 79 78 79 62 53 64 49
 47 53 44 51 51 48 46 51 43 52 62 49
 59 75 56 48 62 46 45 50 47 53 52 43
 65 77 47 115 149 89 110 152 84 84 117 63
 90 124 69 95 129 76 95 130 73 87 119 72
 104 99 83 104 99 83 104 99 83 104 99 83
 104 99 83 106 99 83 108 99 84 109 100 85
 109 100 85 108 98 81 108 106 101 188 195 197
 255 255 255 255 255 255 255 255 254 255 255 239
 234 243 204 157 167 127 75 79 49 61 54 41
 79 72 70 158 153 151 242 240 231 250 224 214
 214 113 113 193 61 58 202 64 60 212 64 64
 214 62 63 212 66 61 218 64 60 194 67 60
 146 59 49 129 61 47 126 60 44 127 58 46
 123 57 47 124 57 48 123 60 51 122 60 52
 112 59 49 107 56 45 105 55 45 104 56 45
 104 56 46 107 55 48 105 54 45 97 48 39
 89 43 31 109 61 52 118 84 78 71 64 51
 46 57 41 49 60 46 55 58 50 54 56 54
 50 56 48 45 57 42 54 68 50 57 72 54
 49 54 44 44 45 34 64 74 49 122 155 109
 94 134 77 81 111 60 86 115 66 92 121 71
 98 130 76 81 106 69 103 100 83 103 100 82
 103 100 82 103 100 82 102 100 82 105 99 82
 108 99 85 109 100 85 109 100 83 106 97 81
 100 100 100 167 179 185 239 251 252 250 255 252
 250 252 238 248 252 237 255 255 237 228 219 192
 114 110 87 65 74 60 150 151 142 243 230 229
 255 252 251 255 255 255 255 255 247 222 178 158
 172 79 65 181 56 48 205 65 60 205 66 61
 209 69 64 181 63 59 143 60 51 129 61 51
 126 60 49 126 58 46 124 57 47 124 57 48
 122 57 50 118 56 48 106 56 47 104 56 47
 102 55 44 101 55 45 101 55 44 105 54 48
 105 55 48 102 54 46 104 59 50 110 76 66
 56 56 51 49 52 44 51 55 45 53 54 43
 51 55 41 47 57 43 48 57 42 46 56 42
 47 56 44 56 65 50 59 67 50 48 49 36
 68 77 58 111 139 106 71 106 61 76 107 60
 76 105 59 87 117 70 98 129 78 67 86 59
 104 101 86 104 101 87 104 101 87 104 101 87
 104 101 87 105 101 86 107 100 90 110 101 87
 104 102 81 110 108 104 160 167 175 226 231 235
 255 255 255 255 255 252 248 251 241 248 250 243
 255 255 239 218 217 184 112 115 87 111 123 106
 200 205 201 255 254 252 255 255 253 253 255 254
 255 255 255 255 255 255 240 223 216 187 106 94
 176 56 43 196 64 54 199 72 57 168 69 54
 135 66 55 128 63 54 130 59 50 125 57 50
 120 56 47 117 55 46 115 55 46 111 53 43
 106 55 48 104 55 48 102 53 47 103 54 47
 105 55 48 108 55 49 108 60 47 103 70 52
 130 113 95 110 107 91 41 50 40 49 55 46
 48 55 45 49 54 42 48 53 44 47 51 45
 47 51 45 47 52 46 46 49 44 46 53 46
 50 63 52 51 64 51 64 77 58 73 88 64
 66 85 56 77 103 64 71 98 57 88 114 74
 93 120 84 52 68 53 104 101 86 104 101 86
 104 101 86 104 101 86 104 101 86 103 101 85
 107 100 91 110 100 88 103 104 80 125 128 126
 217 226 232 255 255 255 255 255 255 253 252 247
 229 232 222 227 234 215 240 241 217 211 210 183
 180 176 159 205 204 199 242 242 241 255 255 255
 255 255 253 254 254 252 254 254 252 255 253 255
 255 255 255 251 255 247 199 163 142 163 69 52
 189 57 46 182 60 57 152 58 59 127 64 61
 112 66 60 113 64 54 113 63 53 111 63 52
 106 60 50 104 58 49 113 54 50 109 53 49
 106 55 47 103 57 49 103 62 52 102 70 57
 99 74 53 95 77 53 127 127 105 81 89 70
 42 49 40 48 55 44 49 55 45 48 54 44
 47 51 44 45 50 45 46 51 45 45 50 44
 44 48 43 44 51 44 41 52 45 45 56 45
 50 62 45 50 62 42 54 67 46 68 86 59
 72 93 61 94 113 82 90 108 83 44 56 46
 104 101 86 104 101 86 104 101 86 105 102 87
 105 102 87 106 101 86 108 99 92 110 103 90
 104 105 81 108 117 112 195 205 213 254 255 255
 255 255 254 250 251 242 233 237 220 231 239 210
 234 232 206 221 212 199 239 224 225 255 250 255
 255 255 255 255 255 253 254 254 252 254 254 252
 254 254 252 255 253 250 249 255 255 250 255 255
 255 255 255 232 212 188 180 107 83 157 63 46
 145 54 42 127 56 44 111 65 51 114 61 55
 115 63 57 115 65 59 111 63 56 110 61 54
 113 57 52 108 58 51 100 61 50 94 62 50
 80 59 43 85 80 57 93 88 61 93 93 63
 110 118 92 50 64 43 50 55 47 50 56 46
 51 57 47 50 56 45 47 53 44 46 51 45
 46 51 45 44 49 43 42 47 41 43 48 43
 43 51 43 42 52 44 45 53 44 55 64 53
 57 67 52 51 62 44 62 74 52 92 104 84
 81 93 79 43 52 45 103 100 85 104 101 86
 105 102 87 105 102 87 105 102 87 106 101 86
 110 99 92 108 104 90 102 108 83 104 119 111
 186 198 205 251 254 255 255 255 253 255 255 242
 240 247 225 221 227 195 218 215 193 233 222 222
 255 245 250 255 253 255 255 255 252 254 254 252
 254 254 252 254 254 252 254 254 252 250 255 253
 255 253 255 255 248 255 255 254 254 255 255 255
 255 254 235 218 195 172 160 117 93 121 72 49
 101 54 34 101 51 41 106 57 48 108 63 52
 105 62 52 104 62 50 99 65 55 95 68 53
 89 71 53 101 93 71 69 70 47 57 67 39
 69 73 43 112 112 82 92 96 71 50 57 39
 55 61 53 55 61 51 55 62 52 56 62 51
 56 60 53 55 59 54 54 59 53 50 55 49
 46 51 45 44 49 43 40 46 40 42 46 42
 44 49 44 47 50 47 61 68 61 61 74 56
 49 63 40 66 80 60 69 80 68 47 57 48
 100 100 83 103 100 85 104 103 87 105 101 87
 104 102 87 107 101 86 110 100 92 108 104 90
 100 107 82 100 119 111 195 208 217 254 255 255
 255 255 252 255 255 242 242 247 224 209 210 182
 198 191 179 240 230 238 255 255 255 254 255 252
 254 255 250 254 254 252 254 254 252 254 254 252
 254 254 252 254 253 255 251 255 252 249 255 245
 253 255 250 255 254 255 255 255 255 255 255 255
 255 255 254 248 244 228 229 216 200 209 189 167
 104 83 59 88 68 44 93 75 50 92 76 52
 86 79 58 81 78 55 77 79 56 94 103 75
 64 76 48 61 69 42 71 74 43 105 103 74
 96 89 68 70 70 53 58 63 53 58 62 53
 56 62 52 57 63 53 57 64 56 59 65 59
 58 62 57 58 64 58 57 61 56 55 59 54
 48 54 50 44 49 44 43 47 46 41 45 46
 41 51 41 54 74 50 57 76 51 56 73 49
 59 75 56 47 59 46 92 103 79 95 105 82
 103 107 87 105 104 88 108 102 88 108 103 89
 107 102 91 104 103 89 101 108 89 124 138 134
 200 210 217 245 250 250 247 250 240 238 238 220
 221 218 198 201 192 174 201 190 182 233 224 230
 254 250 255 253 254 254 253 254 254 254 254 254
 255 254 252 255 253 251 255 253 249 255 252 252
 255 253 253 254 254 252 252 248 244 246 236 232
 254 250 251 254 255 253 253 255 255 255 255 252
 255 255 238 233 230 205 109 103 75 82 75 45
 85 79 50 83 79 51 80 78 52 76 79 54
 72 79 53 69 78 46 76 83 48 93 101 64
 97 101 70 86 86 61 87 84 60 85 82 57
 77 73 54 67 66 53 60 63 53 56 65 53
 56 67 53 57 65 55 57 65 54 58 66 55
 59 67 56 60 69 60 59 69 58 57 64 53
 53 61 54 54 68 47 71 96 53 71 98 60
 58 77 56 64 82 58 72 92 65 52 66 49

