P2
70 46
255
 47 48 51 52 52 52 50 51 50 50 49 47
 46 47 47 46 46 49 52 54 58 64 67 67
 68 69 81 91 98 106 115 118 117 115 108 97
 95 94 92 88 86 84 84 85 87 89 97 102
 92 64 54 51 51 50 48 47 47 46 47 63
 90 117 134 117 79 80 119 151 122 87 46 47
 49 50 51 50 49 51 51 51 48 47 46 49
 48 48 48 49 51 53 57 62 64 63 65 69
 78 85 90 104 114 117 118 116 107 95 95 94
 91 87 85 84 84 82 85 88 99 106 93 58
 54 53 51 51 49 47 48 49 45 56 80 107
 133 113 71 70 95 131 109 87 44 44 47 47
 45 46 45 46 45 46 46 45 45 47 47 48
 49 49 50 53 52 55 56 58 62 67 71 73
 77 94 107 114 116 114 99 92 93 91 88 84
 84 83 82 81 83 91 102 108 101 61 54 52
 51 51 49 49 49 49 48 47 53 86 142 121
 72 57 55 68 79 88 45 45 45 45 43 43
 43 43 44 44 44 44 46 45 46 45 47 47
 46 49 51 54 54 56 60 64 65 66 74 84
 93 103 114 115 94 89 89 88 85 83 81 81
 80 80 86 95 103 125 138 95 65 52 48 47
 47 47 47 49 49 46 45 100 162 141 115 93
 107 143 136 97 46 46 46 46 43 43 42 39
 42 43 43 41 41 44 45 45 45 43 44 46
 51 54 53 52 54 58 60 60 69 82 87 89
 99 104 90 86 85 84 83 80 78 77 77 81
 89 93 111 148 158 123 86 61 48 42 46 46
 45 46 47 45 43 106 157 158 189 186 167 172
 149 94 47 47 48 49 49 48 46 43 43 42
 41 41 41 42 45 45 44 44 46 49 53 54
 52 50 51 53 55 52 54 71 83 86 83 90
 86 85 82 83 82 78 76 74 77 88 92 101
 132 158 159 137 110 87 58 42 42 42 43 44
 45 44 39 94 152 155 182 178 157 157 131 85
 50 51 51 54 54 52 50 47 49 46 43 44
 44 46 48 48 48 48 51 56 58 58 54 51
 52 55 54 51 49 57 70 79 79 81 84 85
 81 80 79 76 73 73 80 90 94 109 135 155
 159 142 128 121 93 57 39 39 42 43 42 40
 37 88 135 140 146 147 147 146 126 81 55 55
 56 58 61 60 59 56 56 54 51 50 50 51
 51 52 55 57 59 63 64 63 58 56 56 57
 57 56 54 56 66 83 89 86 82 82 77 76
 77 72 111 115 83 88 99 120 125 142 158 151
 144 145 132 97 58 43 40 45 44 49 78 107
 118 128 135 133 139 135 121 83 56 57 61 63
 64 66 65 65 65 62 61 60 60 56 54 53
 56 60 63 67 68 64 60 59 59 59 91 96
 86 103 96 92 96 95 94 95 94 81 76 101
 116 117 93 99 116 128 108 109 122 128 132 138
 139 131 127 116 95 56 53 64 92 123 123 123
 130 141 153 141 114 89 54 55 60 64 66 68
 68 69 68 63 62 62 61 58 56 55 57 61
 65 67 66 63 60 60 58 84 125 97 85 101
 92 96 101 88 97 105 112 109 110 109 97 104
 111 107 135 116 113 123 111 110 114 117 122 123
 127 131 143 124 71 66 119 156 153 157 180 204
 207 177 115 95 51 53 55 60 66 70 72 72
 69 74 66 60 59 57 57 56 58 61 66 67
 64 61 58 57 61 100 88 83 92 89 84 92
 95 96 101 99 103 105 106 103 99 98 117 126
 123 111 92 106 116 120 123 122 124 124 129 130
 140 143 128 116 202 225 222 234 247 247 236 208
 137 123 48 46 51 56 62 68 74 73 87 134
 126 89 67 53 50 50 56 61 65 67 59 53
 50 54 80 92 89 87 96 101 95 90 92 101
 93 100 104 106 104 98 99 102 105 112 112 102
 90 93 111 122 122 126 126 133 135 135 138 123
 156 106 219 255 249 251 255 254 251 236 191 183
 56 51 48 52 58 66 76 74 100 170 185 168
 149 113 76 65 58 60 64 61 67 82 79 78
 92 91 95 92 94 102 103 100 103 105 110 103
 104 105 104 99 98 98 111 125 98 92 94 103
 113 114 120 132 126 132 137 139 138 135 145 117
 186 255 254 253 251 251 245 224 231 235 64 61
 54 50 54 63 73 73 90 158 188 195 196 175
 133 103 82 58 57 77 125 146 124 113 93 88
 92 97 104 108 103 111 110 104 114 116 104 105
 102 95 100 101 101 121 109 93 95 102 119 106
 121 126 132 139 133 139 140 141 138 116 129 232
 254 254 250 251 242 210 242 249 73 71 65 58
 55 62 70 70 80 145 180 186 188 180 168 149
 126 104 96 117 127 117 104 112 104 98 102 106
 104 100 103 105 99 97 98 107 116 108 100 104
 108 105 107 123 115 104 96 97 102 97 109 116
 134 149 135 141 153 143 158 124 80 204 254 254
 253 254 254 232 246 250 79 78 73 67 62 64
 70 72 81 142 173 174 180 178 182 180 174 141
 113 114 109 104 110 114 107 105 107 92 94 102
 106 104 97 94 96 97 100 106 106 103 104 102
 96 117 116 120 98 96 95 94 94 99 133 151
 147 145 152 154 164 143 73 203 255 254 254 248
 254 253 247 249 82 81 79 75 73 72 74 76
 83 132 157 159 168 162 149 140 138 114 112 113
 112 101 114 113 108 100 100 95 101 107 102 104
 100 95 100 111 98 95 96 100 99 97 101 108
 114 130 115 98 94 93 92 91 121 148 138 142
 152 147 138 127 99 231 255 255 240 220 232 247
 232 234 80 80 80 78 78 77 78 78 78 99
 124 135 143 130 113 96 108 113 117 119 113 98
 105 99 104 96 94 96 101 104 108 108 107 106
 106 103 96 99 109 111 108 93 96 106 101 99
 97 114 97 87 89 86 106 150 156 156 157 138
 125 154 140 200 219 190 169 168 185 208 226 208
 79 79 79 76 78 79 80 82 80 80 88 110
 137 141 136 100 101 113 118 117 99 88 105 107
 108 92 98 97 100 110 103 101 102 102 95 102
 114 106 111 103 106 119 103 107 100 96 96 121
 101 100 102 95 92 144 168 162 158 133 122 128
 119 126 112 123 143 160 165 160 183 186 78 78
 77 76 78 78 79 81 81 81 81 94 125 155
 146 115 114 109 118 112 93 86 105 110 122 118
 94 97 105 105 108 108 105 106 111 133 142 113
 98 92 106 125 111 99 94 89 89 112 105 108
 108 108 92 129 171 163 152 128 119 90 114 132
 142 151 154 157 160 152 178 192 78 78 78 79
 79 79 80 82 82 81 78 98 137 152 155 130
 119 113 108 102 90 96 101 101 103 122 107 102
 109 110 101 100 98 99 118 147 127 101 84 70
 91 97 115 100 97 92 96 117 103 108 107 106
 95 112 177 164 142 124 110 80 131 150 152 146
 145 149 152 157 169 158 80 80 80 80 80 79
 80 79 91 102 104 123 148 146 139 139 131 113
 105 103 89 105 104 97 103 104 113 106 106 125
 121 101 98 102 111 110 104 96 118 119 111 129
 113 109 108 109 113 112 99 107 107 106 96 105
 180 157 129 123 93 88 132 142 139 138 142 146
 146 157 154 120 82 82 82 82 82 82 79 93
 128 132 124 138 160 179 184 128 111 122 108 103
 93 106 131 101 99 102 109 105 103 109 130 123
 128 131 109 111 103 126 155 150 126 101 111 113
 103 108 115 107 101 106 108 106 99 94 172 145
 124 123 67 86 131 141 132 135 139 142 143 150
 143 113 79 83 84 84 84 81 93 123 129 112
 132 178 221 235 226 178 130 139 135 108 103 96
 110 123 95 113 111 99 101 100 101 130 135 148
 144 107 103 124 142 134 105 106 105 102 108 110
 107 101 104 106 108 107 104 94 160 137 123 112
 58 68 115 132 125 130 136 136 130 118 91 85
 74 78 84 88 85 96 126 127 108 124 163 199
 215 211 187 134 107 119 152 148 120 108 99 104
 103 118 118 105 105 99 94 102 104 138 132 105
 121 115 108 111 108 107 107 107 107 109 107 102
 104 105 109 106 101 110 149 122 125 92 78 65
 86 119 121 124 130 124 115 108 99 102 65 69
 80 84 96 121 119 102 114 147 164 167 163 159
 147 108 88 94 116 155 166 137 97 92 100 103
 99 105 104 99 101 101 96 121 114 97 103 104
 105 101 103 106 107 108 108 107 104 102 104 105
 108 107 99 132 135 121 109 52 64 53 83 110
 113 120 126 122 117 114 113 112 53 57 70 77
 102 111 87 101 132 147 147 142 140 143 136 103
 90 92 120 141 164 166 99 95 99 101 101 97
 103 97 98 99 100 105 99 97 108 108 106 104
 105 110 105 107 107 109 105 101 102 101 102 102
 106 139 120 127 69 42 48 86 168 128 112 127
 130 124 122 116 116 119 45 46 55 67 93 97
 98 133 146 140 140 139 143 143 124 95 93 93
 112 135 149 116 97 99 102 97 100 96 114 100
 99 97 98 105 105 110 110 104 106 111 111 105
 104 108 110 112 106 100 100 100 98 97 122 127
 120 98 53 47 71 172 197 129 112 132 129 119
 120 119 119 126 47 44 48 59 78 89 114 154
 157 137 140 148 142 125 100 91 93 94 101 126
 113 99 102 100 103 96 97 99 112 96 97 98
 97 99 110 112 105 120 131 115 106 105 107 109
 110 109 107 95 96 96 90 90 134 122 114 66
 48 57 141 191 157 87 110 127 120 117 124 125
 122 134 61 60 59 65 75 82 100 136 150 130
 122 128 116 99 93 94 96 103 100 101 101 103
 101 100 103 95 91 106 119 91 94 98 105 109
 110 109 124 133 108 105 106 107 108 111 109 110
 107 94 89 88 81 108 137 118 102 53 72 137
 152 144 78 65 112 127 119 123 127 130 131 142
 78 78 79 80 83 87 90 103 112 105 89 85
 86 91 97 99 103 108 91 96 105 104 101 101
 103 95 85 97 105 112 109 107 111 109 109 100
 93 96 105 109 108 108 108 108 109 111 105 90
 85 79 76 124 115 109 105 106 167 135 85 59
 50 63 113 130 126 128 127 135 145 137 91 92
 92 92 92 95 95 95 94 93 90 77 71 79
 88 93 112 115 99 95 100 104 101 101 103 97
 80 92 95 101 107 108 109 109 102 89 88 93
 107 111 110 109 110 110 109 104 88 83 81 75
 77 106 102 106 120 150 90 44 54 54 56 62
 116 136 133 132 131 143 143 119 96 97 97 97
 96 99 99 97 98 97 97 90 72 66 68 71
 77 115 119 99 95 100 101 101 101 96 78 81
 94 106 117 106 93 95 87 88 91 89 91 104
 113 113 113 105 92 83 79 79 77 69 85 101
 105 107 102 70 45 60 75 57 56 59 116 137
 134 134 142 147 120 117 97 97 97 98 98 98
 99 99 99 99 99 98 85 68 63 61 63 106
 134 124 102 98 102 104 105 106 95 100 115 121
 110 89 89 84 79 79 81 83 83 88 95 100
 95 85 80 80 77 76 73 71 93 96 103 107
 119 108 78 100 76 56 55 61 117 137 134 138
 148 123 119 118 97 97 96 100 99 100 100 100
 100 100 100 100 97 80 64 59 91 101 119 148
 121 109 111 114 117 118 120 120 117 115 106 89
 85 81 78 78 78 76 76 76 78 81 82 80
 79 76 71 73 69 77 95 98 102 105 85 90
 106 76 59 58 55 59 107 137 135 144 129 113
 123 115 97 98 99 98 98 99 99 99 100 100
 100 100 96 97 88 61 86 95 98 113 114 110
 106 108 113 112 114 115 113 113 106 86 79 79
 79 80 78 77 76 76 76 75 76 76 75 73
 71 69 66 79 99 101 103 104 100 97 85 61
 55 59 56 55 91 132 143 134 111 116 122 111
 97 98 100 98 98 99 99 99 100 100 99 92
 112 160 175 122 58 55 59 59 73 99 110 108
 113 114 114 114 112 111 112 94 80 79 78 79
 78 77 77 77 76 74 74 74 74 71 68 67
 63 76 102 105 103 91 76 57 64 69 61 55
 55 54 80 131 144 114 109 115 116 107 98 98
 100 98 98 99 99 100 100 99 94 129 208 251
 255 227 147 69 58 55 46 71 150 123 106 113
 113 112 110 109 111 102 82 79 79 78 76 76
 77 77 75 73 70 71 70 70 68 66 60 72
 104 99 77 59 50 51 49 58 68 56 48 51
 70 132 132 101 108 113 113 104 99 99 99 99
 99 99 100 101 101 99 106 193 255 255 255 253
 236 159 74 55 74 154 240 231 143 100 105 108
 108 109 110 104 84 80 78 77 76 76 78 78
 74 70 69 69 69 70 68 62 55 74 93 65
 52 55 56 55 53 52 62 65 51 43 68 140
 116 96 101 107 114 94 99 99 99 99 99 99
 100 101 101 98 100 176 248 253 250 249 253 219
 109 70 150 234 253 255 254 189 105 92 106 107
 110 98 84 80 78 77 76 76 76 74 70 69
 68 68 68 69 69 67 71 85 55 50 53 52
 52 52 53 51 52 61 63 47 72 127 90 92
 91 103 114 77 100 100 100 100 100 100 101 102
 100 108 166 230 255 255 249 249 253 214 111 117
 203 254 255 254 255 255 227 129 90 102 108 97
 85 81 79 77 74 73 72 69 69 69 67 68
 69 70 73 78 116 106 46 52 52 51 50 49
 49 50 48 50 58 59 71 81 76 91 85 102
 108 62 100 100 100 100 100 100 101 102 101 127
 224 255 255 252 230 230 238 207 175 204 242 255
 255 254 254 254 255 253 171 95 95 96 86 82
 79 78 77 76 73 71 71 69 69 70 73 78
 79 80 124 84 46 52 52 51 49 48 49 48
 46 48 48 51 56 56 61 78 83 104 100 51
 100 100 100 101 101 101 101 104 102 114 203 255
 255 250 234 233 230 213 229 252 255 255 254 254
 254 253 253 254 255 215 126 89 80 76 77 76
 78 79 77 75 73 72 71 70 63 79 86 90
 113 57 53 53 54 53 50 49 49 47 45 46
 48 48 50 60 62 57 68 98 88 49 99 100
 101 101 101 101 101 104 103 114 195 253 255 254
 242 222 213 225 249 254 255 254 254 254 254 253
 254 251 254 255 252 199 127 84 66 65 71 75
 74 73 74 74 74 93 67 61 68 109 92 53
 58 58 59 59 58 57 57 53 49 47 44 44
 47 49 65 68 56 74 75 53 98 99 101 101
 101 101 102 104 102 112 205 255 255 254 243 207
 192 234 255 254 254 254 254 254 254 254 253 252
 254 254 255 255 255 243 218 192 87 71 78 78
 79 76 76 97 69 64 70 100 89 68 60 60
 59 60 61 63 60 62 59 57 52 47 46 44
 47 65 67 65 68 54 97 99 104 102 102 103
 102 102 104 133 208 249 248 236 217 193 192 227
 252 254 254 254 254 253 253 253 254 254 249 239
 251 254 254 255 253 228 102 74 77 77 76 75
 74 72 77 94 96 83 82 80 72 65 61 61
 62 61 61 62 63 65 65 61 58 61 84 86
 69 74 83 60
