/* XPM */
static char *magick[] = {
/* columns rows colors chars-per-pixel */
"70 46 256 2",
"   c #2b2f1e",
".  c #2d2b2b",
"X  c #2a2927",
"o  c #2d2e31",
"O  c #2d322c",
"+  c #2d362a",
"@  c #2e3430",
"#  c #332d2b",
"$  c #372c2a",
"%  c #312a30",
"&  c #33332d",
"*  c #333c2c",
"=  c #3a332d",
"-  c #3a3929",
";  c #363b33",
":  c #3b3532",
">  c #3b3b33",
",  c #363733",
"<  c #38354c",
"1  c #38422b",
"2  c #394435",
"3  c #3c464c",
"4  c #592b1f",
"5  c #44392d",
"6  c #453b33",
"7  c #553b2e",
"8  c #583b36",
"9  c #4c2c29",
"0  c #69362c",
"q  c #6a3a33",
"w  c #7c3a2d",
"e  c #75372c",
"r  c #793b32",
"t  c #602e24",
"y  c #433f4e",
"u  c #493e75",
"i  c #45472c",
"p  c #484637",
"a  c #485738",
"s  c #53442e",
"d  c #5c4d3c",
"f  c #574a38",
"g  c #58543b",
"h  c #43572d",
"j  c #4a6539",
"k  c #556a3c",
"l  c #654638",
"z  c #63553b",
"x  c #764337",
"c  c #79412d",
"v  c #607c3c",
"b  c #4d4b48",
"n  c #4b5844",
"m  c #594d45",
"M  c #5a5746",
"N  c #555155",
"B  c #5c5869",
"V  c #4e4d69",
"C  c #596847",
"Z  c #5a6853",
"A  c #597845",
"S  c #597350",
"D  c #655b48",
"F  c #685e55",
"G  c #77584a",
"H  c #73544d",
"J  c #6b5a6b",
"K  c #68654b",
"L  c #6a6354",
"P  c #696657",
"I  c #647b47",
"U  c #677857",
"Y  c #716655",
"T  c #757456",
"R  c #76634c",
"E  c #6a6667",
"W  c #7b7969",
"Q  c #6d6f73",
"!  c #58588f",
"~  c #5c5ea3",
"^  c #5d66af",
"/  c #665c9e",
"(  c #727196",
")  c #7977a6",
"_  c #6e73b2",
"`  c #7478cd",
"'  c #5d843e",
"]  c #5e8447",
"[  c #65884a",
"{  c #6b944b",
"}  c #6d9554",
"|  c #719b4d",
" . c #739957",
".. c #6e8759",
"X. c #748967",
"o. c #778575",
"O. c #7b9b68",
"+. c #779877",
"@. c #6b8e68",
"#. c #78a658",
"$. c #7ca567",
"%. c #7ea675",
"&. c #7eb065",
"*. c #7c8d84",
"=. c #7f83b0",
"-. c #7baf88",
";. c #7d87cb",
":. c #91341d",
">. c #873b2b",
",. c #853b34",
"<. c #953c2b",
"1. c #983d34",
"2. c #a83a29",
"3. c #aa3c31",
"4. c #b83a2a",
"5. c #b73b33",
"6. c #b63d45",
"7. c #884336",
"8. c #9b402b",
"9. c #984537",
"0. c #8c402e",
"q. c #a7412b",
"w. c #a74435",
"e. c #b94437",
"r. c #864a44",
"t. c #87574a",
"y. c #994447",
"u. c #95544c",
"i. c #975855",
"p. c #8a5956",
"a. c #936b5a",
"s. c #876652",
"d. c #946c67",
"f. c #a94845",
"g. c #b3524c",
"h. c #ba5d7b",
"j. c #b16d59",
"k. c #b0746d",
"l. c #c43a2b",
"z. c #cb3a2b",
"x. c #c93727",
"c. c #c73c33",
"v. c #d7372a",
"b. c #d83a35",
"n. c #da2e27",
"m. c #ff1b38",
"M. c #e72d29",
"N. c #ec2c37",
"B. c #e5342b",
"V. c #ec363a",
"C. c #e73936",
"Z. c #f7292b",
"A. c #f92a37",
"S. c #f3312d",
"D. c #f63439",
"F. c #da3d43",
"G. c #c03e40",
"H. c #e93d45",
"J. c #fc2b48",
"K. c #f83b43",
"L. c #fa3b58",
"P. c #f03654",
"I. c #ff3b66",
"U. c #fb3e71",
"Y. c #c84239",
"T. c #d6443c",
"R. c #e4423b",
"E. c #c64b47",
"W. c #c94a57",
"Q. c #d84644",
"!. c #d54954",
"~. c #d75348",
"^. c #cc5754",
"/. c #cc5969",
"(. c #d6655b",
"). c #d56f71",
"_. c #e74546",
"`. c #e95657",
"'. c #f6454a",
"]. c #f94956",
"[. c #ec5055",
"{. c #fb4667",
"}. c #fe4877",
"|. c #fb5668",
" X c #fd5776",
".X c #e75a64",
"XX c #e8645c",
"oX c #f8686b",
"OX c #fa6774",
"+X c #f9737a",
"@X c #e96f6f",
"#X c #847597",
"$X c #8c7dae",
"%X c #b37498",
"&X c #837ec8",
"*X c #fd7985",
"=X c #e97b84",
"-X c #c56995",
";X c #82865e",
":X c #879172",
">X c #8aa877",
",X c #97a57c",
"<X c #89b06e",
"1X c #a2917c",
"2X c #a5b979",
"3X c #f9827c",
"4X c #989c95",
"5X c #869188",
"6X c #8785bc",
"7X c #8483a9",
"8X c #89a889",
"9X c #93af92",
"0X c #8fa5a3",
"qX c #af84aa",
"wX c #acad91",
"eX c #b0b1b0",
"rX c #8988c8",
"tX c #8886d8",
"yX c #969bdb",
"uX c #9691cc",
"iX c #8d8feb",
"pX c #9ca2ea",
"aX c #a09bd6",
"sX c #a9a7d9",
"dX c #a6abfa",
"fX c #b4b9ff",
"gX c #a8aff3",
"hX c #9dc393",
"jX c #aace93",
"kX c #a8c9af",
"lX c #bbc5c9",
"zX c #c2879b",
"xX c #cfae96",
"cX c #c4bcb8",
"vX c #c9b9a7",
"bX c #ff858c",
"nX c #ff9193",
"mX c #e1aaa4",
"MX c #d1ceb3",
"NX c #ede9ac",
"BX c #e8d4bc",
"VX c #d8cac4",
"CX c #d1d1ce",
"ZX c #c1c4e7",
"AX c #d2e5c6",
"SX c #d9e2e8",
"DX c #ebd9d0",
"FX c #e9ebd9",
"GX c #f1ead5",
"HX c #e7e4e6",
"JX c #f4e7e8",
"KX c #fafae9",
"LX c #fefefd",
"PX c #fcfaf5",
"IX c #f1f2f2",
"UX c #e6d6f0",
/* pixels */
"# & & = = = $ $ = $ $ # # # # # # & & = - 6 s 6 p s x 8.5.E.Q.'.K.V.T.4.4.q.q.8.0.<.<.<.0.1.e.e.9.7 , % $ = # . O # $ 8 H d.$X/ V V Q 4XW N ",
". O # # $ # # = & : $ # # # # # # & & = - 6 6 5 7 p l >.2.e.Q.H.K.K.T.q.q.4.8.8.>.<.<.<.<.1.5.c.9.5 , : & & & . @ % % 5 r i.$X^ u V B *.U N ",
". . # # # # . . # # # # # # # # # # # & = 5 5 5 5 p f 0 >.9.e.Q.D.V.e.q.q.q.<.<.<.>.>.>.7.9.c.g.p.> : = & & O O @ @ # # 9 H 6X` u < < 3 n M ",
"o o . . . . X X . . . . . # . # # # # # = = : 5 6 6 8 7 e <.w.e.Q.Q.q.8.1.1.<.>.>.>.>.,.7.9.e.j.:XZ 6 & O O . . # @ @ % # E uX;.( B Q *.*.Z ",
"o o o . . . X X X . X X X . . . # . . . = : : = 5 5 6 6 0 ,.1.9.w.e.8.<.<.<.<.>.>.>.w r r.9.g.1X8XQ n 2 O . # # . . . % X K 4X0XkXkX9XhX8XZ ",
"O O . & & # # . . . . . X X . . . . $ # = : = = $ = , % 9 0 7.0.<.9.1.<.>.0.>.>.e e w 7.r.u.:X9X9X+.U n : # X . % % % % X g >X>XhXhX%.8XX.M ",
"O & & : , : # # % o % % # # # . % # $ 5 5 5 = $ : 9 9 9 $ 9 0 ,.,.r 7.7.0.>.>.e e e r 7.r.p.o.8X8X+.@.@.Z * X X X X . X X M O.O.%.%.%.+.@.n ",
", , , > > 6 6 : : : = $ # & & , : 5 6 6 6 6 5 = 5 : 6 5 = 9 0 ,.r.7.,.c w w e e g.j.x H R T j.k.4X>X:X%.@.Z - X X X $ $ f P ..}  .@.+.+.@.n ",
"> > 2 < 6 6 p p 6 6 6 6 6 : = & : 6 6 s 6 6 6 > : 6 r.y.7.f.9.3.3.9.3.6.w.x w 6._.^.D C s.`.J.J.L.{..X@X)././.g.y.9 $ i z ......X.+.4X*.U n ",
", : > 6 b 6 b p 6 6 6 6 6 5 : = - 6 7 s 7 6 5 > : x ].x.<.Y.3.5.e.2.5.c.D.R.T.C.n.Y.s.s.XXK._.'.J.J.J.L.U.U.}.}. X/.8 2 W 4X4X4XeXVXCXeXU Z ",
"@ , , > p b p p p b 6 6 5 - > : > 6 p p i 5 6 ; 6 f.2.2.q.2.2.3.3.3.e.z.M.Z.S.B.n.l.E.~.'.H.4.Y._.K.L.L.I.U.}.{. X X/.d.VXUXUXJXPXPXIXCX5Xo.",
"& . @ , > 6 p p N 7X) B y : $ & - 5 6 8 5 = & 9 ,.2.2.<.4.l.5.2.4.c.x.v.v.S.M.x.n.v.T.R.T.l.2.2.Q.'.'.].I.}.}.}. X{.=Xs.DXLXLXLXLXLXLXJXeXeX",
": & # & > p f f B pXfXpXuX( b < > i p > 3 V n d 9.2.3.2.4.v.b.z.b.b.R.M.Z.Z.M.v.x.v.T.~.Y.4.4.Y.Q.Q._.{.{.{.}. X X|.OX!.mXLXLXLXPXLXPXDXGXHX",
"p > - $ : 6 f f B yXfXfXfXgX&X/ V > > b ) qXh.W.4.2.4.l.b.C.v.C.C.v.R.S.Z.Z.B.x.x.x.v.~.T.4.4.Y.~.e.~.`..X|.}. X|.|.|.W.d.JXLXLXPXPXJXVXJXPX",
"p p p = = > p s N rXdXdXfXdXpXtX_ ! p.W.[.!.b.C.c.4.c.b.b.v.b.v.v.x.x.v.D.S.v.C.S.B.T.R.T.v.l.4.Y.4.Y.E..XOX|. X+X X=Xd.d VXLXLXLXLXPXGXKXKX",
"m f f p 5 6 p s N 6XpXdXdXgXgXdXpX%XF.H.C.c.T.H.C.Y.Y.4.x.v.B.B.x.x.x.x.v.B.S.N.S.B.x.T.Q.~.l.l.4.4.5.e.XXoXoX@X@XOX*X:Xi VXLXLXLXKXPXKXKXKX",
"m d m f f p f f N $XyXiXpXyXrX6X-XH.C.H.F.c.Q.H.T.Y.4.4.x.B.B.B.v.4.c.V.x.x.x.v.z.x.z.b.V.[.T.l.4.2.2.4.~.@X.XoXOXoX|.X.C GXLXLXFXAXAXKXFXFX",
"d d d d f f f f b J ( $XtX_ ^ J F.K._.'.Q.5.Y.c.Y.e.4.x.v.B.S.Z.A.N.A.Z.x.x.B.C.Y.x.x.B.B.v.v.T.4.2.2.2.e.@X+X+X+X|.I.,XO.MXAXkX9XhXjXAXFXVX",
"d d d f f d m d m m B / rXqX%X6.z.C.K._.c.2.c.b.Y.4.Y.x.v.S.B.M.Z.A.m.N.H.N.A.N.B._.b.b.v.l.l.~.c.c.z.4.4..XbX*X+X{.].;X[ ..I ..$.<X<X>XeXcX",
"d f f f d d d d z z m B ( zXOXP.H.Q._.Q.3.2.c.H.R.T.x.v.B.B.S.S.N.J.J.|.|.P.n.4.Y.[.T.x.4.2.2.Q.C.S.Z.C.4.(.bX*XOX{.L.k I X.O.%.<X<X<X<XwXMX",
"f f f f d d d d d z l J 6XqXoX].P.H.b.c.2.4.b.n.v.R.T.v.V.D.m.Z.Z.N.P. X].c.<.:.3.c.Q.l.l.4.5.T.B.Z.Z.S.x.E.nX*X XI.F.h  .>X>X$.$.$.&.<X9X4X",
"z l l d d l d d B J E _ iXuXk.XX].K.b.Y.2.g.c.x.v.B.R.v.S.'.'.M.n.n.H.F.b.l.Q.!.E.[.T.T.b.K.J.C.n.S.A.S.x.e.nX+X{.I.f.j  .O.O. .O.$.#.<X<XU ",
"l d d d d z f B $X$X_ rXuXeXxXj.Y.'.V.b.5.e.(.5.n.M.b.B.Z.S.[.[.[.`.F.V.N.].+XOX_.b.b.T.B.A.D.B.v.S.A.S.v.5.bX XI.{.7 j  .O.}  .#.#.| <X<XU ",
"d d d D z m F ( _ _ ` sXNXNXNXwXd.).].V.b.4.g.~.x.R.R.M.M.n.z.[.|.OX|.N.A.'.|.|.B.C.b.b.C.C.V.v.B.S.D.S.v.5.*X XI.g.- 2 U  .{ { #.| { [ j h ",
"f d m D d F ) _ ^ ` yXZXDXVXcX5XW a.@XoXR.R.l.Y.x._._.v.B.x.4.Y.c.|.`.b.'.H.V.D.S.S.B.b.V.V.C.v.v.S.S.S.n.Q.OXI.I.r.f i a [ [ { } [ ] ] A A ",
"p p d d F ( ) ~ _ tXyXyXaXuXrXQ M G j.@X3XXXx.x.x.v.z.v.v.Y.Y.l.5.~.T.x.S.A.A.m.A.N.b.C.C.N.B.v.v.B.B.B.v.`.{.I.W.$ i - a I ' ' { { ] ] I A ",
"& > p d E ( ! ~ ` tXrXrXtXrX6Xp.M G ^.@X3X3Xl.4.x.v.z.x.v.x.l.z.c.c.z.n.A.A.J.A.A.D.b.b.C.D.B.v.v.n.v.v.b.|.I.I.q X + g 2XX.' { } { { ] [ [ ",
"O . , p B ! ~ ` iX` rXtXtXrX( H K D g.`.oXT.x.x.v.n.Y.l.T.z.x.x.v.b.b.V.J.N.N.D.V.C.b.C.V.D.C.x.x.x.x.l.[.{.I.f., % i 2XjX .' | } [ ] ] [ { ",
"+ X O > b B / iXiX&XrXrXrX#XF D D D t.`.C.n.v.v.v.x.q.x.T.x.l.x.x.v.C.D.N._.`.R.B.b.C.V.C.V.b.l.4.4.4.4.|.L.W.i   9 :XjX,Xj v { ] ] { { { } ",
"> > : 1 p n E 6XtX$X) ) Q F D D K G w.v.B.B.v.x.v.4.4.v.R.4.4.l.b.C.C.C.'.`.Y.b.b.C.V.V.V.C.T.2.2.2.:.Y.|.!.t.- h #.<X:Xa 1 I { ] { { } { #.",
"d g b g M D D E ( J N N D D G K t.f.4.x.b.v.v.v.v.4.2.l.T.T.T.b.C.V.C.c.4.4.b.V.V.C.C.C.C.C.Y.2.8.:.:.^.g.i.t.v 2X| a > # i [ { { } { | #.} ",
"D D D D D D D D F D D d p d M Z a.!.v.4.z.v.v.v.v.e.:.2.x.x.B.C.V.V.v.2.2.4.T.V.V.C.C.C.b.Y.2.:.0.:.c u.u.u.a.>Xj   , = : 1 [ | | | | #.#.] ",
"F F F F F F K F D K K D p 2 2 p g g._.l.l.v.z.v.v.4.:.<.4.b._.b.5.5.2.<.8.2.4.b.C.C.R.Y.3.<.>.>.w e >.9.u.i.t.h + ; p - - 1 [  .| | #.&.] ] ",
"F K G F F F F F L F F F M p 2 1 1 u.`.'.z.z.z.c.T.Y.3.e.Q._.Q.3.0.7.w >.>.<.<.<.4.5.4.2.<.>.>.w e e 9.7.u.i.a.I a Z a - - 1 [ | } | &.[ ] ] ",
"D K F K L Y L K K Y L L L g i - 7.E.!.oX~.T.Q.Q.Q._._._.'.R.b.1.0.,.,.r w w e w >.>.<.>.>.w e e 0 r 7.t.u.p.M j A h 1 > = - I  .} #.} ] { ] ",
"F L Y L F F L F L F L L F K D i x y.f.E.E.T.Y.Y.Q._.Q._.C.T.c.1.>.r ,.>.>.w w w r w e r e e e 0 0 x t.u.u.R C C a 1 - > * - k  .#.} ] ] { ] ",
"K F L K L L L K Y K R F Q 4XeXW 1 1 1 > l f.F.T.T.Q.Q.Q.Q.T.T.3.>.w >.>.w w w w e e e e e e 0 0 t r u.i.R D a * 2 2 2 * , = a } #.] ] ] ] ] ",
"F K L F K L F L L F F d.CXLXLXDX1X2 1 - . 8 ).^.b.H.Q.H.Q.Y.T.c.>.w w w w w w w r e e e 0 e 0 0 t 0 u.G p 2 + @ + 1 2 1 O & i  .} A A ] ] A ",
"L L L L P L L L L P E lXLXLXLXKXFX,Xi - b 4XJXGX).5.c.F.F.T.b.E.<.,.w >.r w r r q 0 0 0 0 0 0 t 4 0 H 6 + * , , * + 2 2 & X i O.] j A A ] C ",
"L K L K K L L L L P B eXIXLXKXKXKXDXT p 4XJXLXLXPXmXf.5.Y.Y.Q.5.,.w w ,.r w r r 0 0 0 0 0 0 0 0 q H , & * & * + + + + 1 2 + p @.A j j A ] 3 ",
"L L P P P L P P K E 0XHXLXLXKXIXKXMXT Q CXLXLXLXLXLXDXj.2.c.Y.w.,.,.,.r e e e 0 0 0 0 0 0 0 0 l s.P O @ + + O O + + O O 2 2 2 n 2 A j S S 2 ",
"L L Z L P L P F Z *.SXLXLXLXFXFXGXMXwXVXIXLXLXLXLXLXLXLXxXw.4.5.1.,.H q x q q 0 e q 0 q q l l g o.n O + * + O O O O O O O + 1 + 2 j j S S + ",
"P L L P P P E P P Q lXLXLXPXFXFXGXVXJXLXLXLXLXLXLXPXLXLXLXBXj.1.<.w q r r x l c e 0 8 8 s g g g U 1 ; * ; + @ o O O O . O O + 2 2 1 2 S n + ",
"Z L P P P P F P S Q lXLXLXPXKXAXAXFXPXLXLXPXLXLXLXLXLXLXLXLXKXvXa.x t 0 0 l 0 l l l f D i 1 i T C * ; ; ; ; ; @ , , O O X X O O 2 2 1 2 3 @ ",
"L L P P P P E P P Q lXLXLXPXKXMXcXJXLXLXPXLXLXLXLXLXLXPXLXLXLXLXLXKXDXvXz s s z f p p C i 1 i K D i ; > ; 2 ; 3 ; 2 2 @ @ O o o + 2 2 2 2 + ",
"Z P P P P P P P P *.CXLXKXFXAXvXcXHXPXLXLXLXLXLXPXLXLXLXPXJXLXLXLXLXKXDXR s s g f a a i a k K g g f p p ; 2 2 2 2 2 2 3 2 2 @ 1 j j 2 2 n * "
};
