<?xml version="1.0" standalone="no"?><svg xmlns="http://www.w3.org/2000/svg" version="1.1" width="234" height="234"><title>QR Code</title><desc>bitcoin:bc1qd7lckxu36ceupgt4wpnvnug3dr8jcnpqxsla2k?label=ImageMagick%20Donation</desc><rect style="fill:rgb(255, 255, 255);fill-opacity:1" x="0" y="0" width="234" height="234"/><g id="elements"><path style="fill:rgb(0, 0, 0)" d="M 6,6 l 6,0 0,6 -6,0 z M 12,6 l 6,0 0,6 -6,0 z M 18,6 l 6,0 0,6 -6,0 z M 24,6 l 6,0 0,6 -6,0 z M 30,6 l 6,0 0,6 -6,0 z M 36,6 l 6,0 0,6 -6,0 z M 42,6 l 6,0 0,6 -6,0 z M 60,6 l 6,0 0,6 -6,0 z M 96,6 l 6,0 0,6 -6,0 z M 102,6 l 6,0 0,6 -6,0 z M 114,6 l 6,0 0,6 -6,0 z M 120,6 l 6,0 0,6 -6,0 z M 138,6 l 6,0 0,6 -6,0 z M 144,6 l 6,0 0,6 -6,0 z M 150,6 l 6,0 0,6 -6,0 z M 156,6 l 6,0 0,6 -6,0 z M 174,6 l 6,0 0,6 -6,0 z M 186,6 l 6,0 0,6 -6,0 z M 192,6 l 6,0 0,6 -6,0 z M 198,6 l 6,0 0,6 -6,0 z M 204,6 l 6,0 0,6 -6,0 z M 210,6 l 6,0 0,6 -6,0 z M 216,6 l 6,0 0,6 -6,0 z M 222,6 l 6,0 0,6 -6,0 z M 6,12 l 6,0 0,6 -6,0 z M 42,12 l 6,0 0,6 -6,0 z M 54,12 l 6,0 0,6 -6,0 z M 60,12 l 6,0 0,6 -6,0 z M 72,12 l 6,0 0,6 -6,0 z M 78,12 l 6,0 0,6 -6,0 z M 126,12 l 6,0 0,6 -6,0 z M 138,12 l 6,0 0,6 -6,0 z M 156,12 l 6,0 0,6 -6,0 z M 162,12 l 6,0 0,6 -6,0 z M 168,12 l 6,0 0,6 -6,0 z M 186,12 l 6,0 0,6 -6,0 z M 222,12 l 6,0 0,6 -6,0 z M 6,18 l 6,0 0,6 -6,0 z M 18,18 l 6,0 0,6 -6,0 z M 24,18 l 6,0 0,6 -6,0 z M 30,18 l 6,0 0,6 -6,0 z M 42,18 l 6,0 0,6 -6,0 z M 60,18 l 6,0 0,6 -6,0 z M 66,18 l 6,0 0,6 -6,0 z M 72,18 l 6,0 0,6 -6,0 z M 90,18 l 6,0 0,6 -6,0 z M 102,18 l 6,0 0,6 -6,0 z M 120,18 l 6,0 0,6 -6,0 z M 132,18 l 6,0 0,6 -6,0 z M 138,18 l 6,0 0,6 -6,0 z M 144,18 l 6,0 0,6 -6,0 z M 150,18 l 6,0 0,6 -6,0 z M 174,18 l 6,0 0,6 -6,0 z M 186,18 l 6,0 0,6 -6,0 z M 198,18 l 6,0 0,6 -6,0 z M 204,18 l 6,0 0,6 -6,0 z M 210,18 l 6,0 0,6 -6,0 z M 222,18 l 6,0 0,6 -6,0 z M 6,24 l 6,0 0,6 -6,0 z M 18,24 l 6,0 0,6 -6,0 z M 24,24 l 6,0 0,6 -6,0 z M 30,24 l 6,0 0,6 -6,0 z M 42,24 l 6,0 0,6 -6,0 z M 54,24 l 6,0 0,6 -6,0 z M 60,24 l 6,0 0,6 -6,0 z M 72,24 l 6,0 0,6 -6,0 z M 102,24 l 6,0 0,6 -6,0 z M 108,24 l 6,0 0,6 -6,0 z M 114,24 l 6,0 0,6 -6,0 z M 120,24 l 6,0 0,6 -6,0 z M 138,24 l 6,0 0,6 -6,0 z M 144,24 l 6,0 0,6 -6,0 z M 150,24 l 6,0 0,6 -6,0 z M 156,24 l 6,0 0,6 -6,0 z M 162,24 l 6,0 0,6 -6,0 z M 168,24 l 6,0 0,6 -6,0 z M 174,24 l 6,0 0,6 -6,0 z M 186,24 l 6,0 0,6 -6,0 z M 198,24 l 6,0 0,6 -6,0 z M 204,24 l 6,0 0,6 -6,0 z M 210,24 l 6,0 0,6 -6,0 z M 222,24 l 6,0 0,6 -6,0 z M 6,30 l 6,0 0,6 -6,0 z M 18,30 l 6,0 0,6 -6,0 z M 24,30 l 6,0 0,6 -6,0 z M 30,30 l 6,0 0,6 -6,0 z M 42,30 l 6,0 0,6 -6,0 z M 66,30 l 6,0 0,6 -6,0 z M 78,30 l 6,0 0,6 -6,0 z M 84,30 l 6,0 0,6 -6,0 z M 90,30 l 6,0 0,6 -6,0 z M 96,30 l 6,0 0,6 -6,0 z M 120,30 l 6,0 0,6 -6,0 z M 126,30 l 6,0 0,6 -6,0 z M 144,30 l 6,0 0,6 -6,0 z M 162,30 l 6,0 0,6 -6,0 z M 174,30 l 6,0 0,6 -6,0 z M 186,30 l 6,0 0,6 -6,0 z M 198,30 l 6,0 0,6 -6,0 z M 204,30 l 6,0 0,6 -6,0 z M 210,30 l 6,0 0,6 -6,0 z M 222,30 l 6,0 0,6 -6,0 z M 6,36 l 6,0 0,6 -6,0 z M 42,36 l 6,0 0,6 -6,0 z M 54,36 l 6,0 0,6 -6,0 z M 66,36 l 6,0 0,6 -6,0 z M 84,36 l 6,0 0,6 -6,0 z M 90,36 l 6,0 0,6 -6,0 z M 96,36 l 6,0 0,6 -6,0 z M 102,36 l 6,0 0,6 -6,0 z M 108,36 l 6,0 0,6 -6,0 z M 114,36 l 6,0 0,6 -6,0 z M 126,36 l 6,0 0,6 -6,0 z M 132,36 l 6,0 0,6 -6,0 z M 138,36 l 6,0 0,6 -6,0 z M 150,36 l 6,0 0,6 -6,0 z M 162,36 l 6,0 0,6 -6,0 z M 168,36 l 6,0 0,6 -6,0 z M 186,36 l 6,0 0,6 -6,0 z M 222,36 l 6,0 0,6 -6,0 z M 6,42 l 6,0 0,6 -6,0 z M 12,42 l 6,0 0,6 -6,0 z M 18,42 l 6,0 0,6 -6,0 z M 24,42 l 6,0 0,6 -6,0 z M 30,42 l 6,0 0,6 -6,0 z M 36,42 l 6,0 0,6 -6,0 z M 42,42 l 6,0 0,6 -6,0 z M 54,42 l 6,0 0,6 -6,0 z M 66,42 l 6,0 0,6 -6,0 z M 78,42 l 6,0 0,6 -6,0 z M 90,42 l 6,0 0,6 -6,0 z M 102,42 l 6,0 0,6 -6,0 z M 114,42 l 6,0 0,6 -6,0 z M 126,42 l 6,0 0,6 -6,0 z M 138,42 l 6,0 0,6 -6,0 z M 150,42 l 6,0 0,6 -6,0 z M 162,42 l 6,0 0,6 -6,0 z M 174,42 l 6,0 0,6 -6,0 z M 186,42 l 6,0 0,6 -6,0 z M 192,42 l 6,0 0,6 -6,0 z M 198,42 l 6,0 0,6 -6,0 z M 204,42 l 6,0 0,6 -6,0 z M 210,42 l 6,0 0,6 -6,0 z M 216,42 l 6,0 0,6 -6,0 z M 222,42 l 6,0 0,6 -6,0 z M 78,48 l 6,0 0,6 -6,0 z M 84,48 l 6,0 0,6 -6,0 z M 96,48 l 6,0 0,6 -6,0 z M 114,48 l 6,0 0,6 -6,0 z M 120,48 l 6,0 0,6 -6,0 z M 132,48 l 6,0 0,6 -6,0 z M 144,48 l 6,0 0,6 -6,0 z M 150,48 l 6,0 0,6 -6,0 z M 162,48 l 6,0 0,6 -6,0 z M 174,48 l 6,0 0,6 -6,0 z M 6,54 l 6,0 0,6 -6,0 z M 12,54 l 6,0 0,6 -6,0 z M 18,54 l 6,0 0,6 -6,0 z M 24,54 l 6,0 0,6 -6,0 z M 30,54 l 6,0 0,6 -6,0 z M 42,54 l 6,0 0,6 -6,0 z M 48,54 l 6,0 0,6 -6,0 z M 54,54 l 6,0 0,6 -6,0 z M 60,54 l 6,0 0,6 -6,0 z M 66,54 l 6,0 0,6 -6,0 z M 78,54 l 6,0 0,6 -6,0 z M 90,54 l 6,0 0,6 -6,0 z M 96,54 l 6,0 0,6 -6,0 z M 108,54 l 6,0 0,6 -6,0 z M 114,54 l 6,0 0,6 -6,0 z M 138,54 l 6,0 0,6 -6,0 z M 156,54 l 6,0 0,6 -6,0 z M 162,54 l 6,0 0,6 -6,0 z M 180,54 l 6,0 0,6 -6,0 z M 192,54 l 6,0 0,6 -6,0 z M 204,54 l 6,0 0,6 -6,0 z M 216,54 l 6,0 0,6 -6,0 z M 6,60 l 6,0 0,6 -6,0 z M 12,60 l 6,0 0,6 -6,0 z M 18,60 l 6,0 0,6 -6,0 z M 48,60 l 6,0 0,6 -6,0 z M 54,60 l 6,0 0,6 -6,0 z M 60,60 l 6,0 0,6 -6,0 z M 96,60 l 6,0 0,6 -6,0 z M 102,60 l 6,0 0,6 -6,0 z M 120,60 l 6,0 0,6 -6,0 z M 126,60 l 6,0 0,6 -6,0 z M 132,60 l 6,0 0,6 -6,0 z M 144,60 l 6,0 0,6 -6,0 z M 150,60 l 6,0 0,6 -6,0 z M 174,60 l 6,0 0,6 -6,0 z M 180,60 l 6,0 0,6 -6,0 z M 192,60 l 6,0 0,6 -6,0 z M 204,60 l 6,0 0,6 -6,0 z M 210,60 l 6,0 0,6 -6,0 z M 12,66 l 6,0 0,6 -6,0 z M 18,66 l 6,0 0,6 -6,0 z M 24,66 l 6,0 0,6 -6,0 z M 42,66 l 6,0 0,6 -6,0 z M 48,66 l 6,0 0,6 -6,0 z M 54,66 l 6,0 0,6 -6,0 z M 66,66 l 6,0 0,6 -6,0 z M 72,66 l 6,0 0,6 -6,0 z M 78,66 l 6,0 0,6 -6,0 z M 114,66 l 6,0 0,6 -6,0 z M 126,66 l 6,0 0,6 -6,0 z M 132,66 l 6,0 0,6 -6,0 z M 156,66 l 6,0 0,6 -6,0 z M 162,66 l 6,0 0,6 -6,0 z M 168,66 l 6,0 0,6 -6,0 z M 180,66 l 6,0 0,6 -6,0 z M 186,66 l 6,0 0,6 -6,0 z M 216,66 l 6,0 0,6 -6,0 z M 222,66 l 6,0 0,6 -6,0 z M 6,72 l 6,0 0,6 -6,0 z M 12,72 l 6,0 0,6 -6,0 z M 18,72 l 6,0 0,6 -6,0 z M 36,72 l 6,0 0,6 -6,0 z M 54,72 l 6,0 0,6 -6,0 z M 66,72 l 6,0 0,6 -6,0 z M 72,72 l 6,0 0,6 -6,0 z M 90,72 l 6,0 0,6 -6,0 z M 102,72 l 6,0 0,6 -6,0 z M 114,72 l 6,0 0,6 -6,0 z M 132,72 l 6,0 0,6 -6,0 z M 138,72 l 6,0 0,6 -6,0 z M 150,72 l 6,0 0,6 -6,0 z M 162,72 l 6,0 0,6 -6,0 z M 168,72 l 6,0 0,6 -6,0 z M 180,72 l 6,0 0,6 -6,0 z M 186,72 l 6,0 0,6 -6,0 z M 198,72 l 6,0 0,6 -6,0 z M 216,72 l 6,0 0,6 -6,0 z M 36,78 l 6,0 0,6 -6,0 z M 42,78 l 6,0 0,6 -6,0 z M 48,78 l 6,0 0,6 -6,0 z M 66,78 l 6,0 0,6 -6,0 z M 72,78 l 6,0 0,6 -6,0 z M 102,78 l 6,0 0,6 -6,0 z M 120,78 l 6,0 0,6 -6,0 z M 138,78 l 6,0 0,6 -6,0 z M 150,78 l 6,0 0,6 -6,0 z M 156,78 l 6,0 0,6 -6,0 z M 168,78 l 6,0 0,6 -6,0 z M 174,78 l 6,0 0,6 -6,0 z M 186,78 l 6,0 0,6 -6,0 z M 192,78 l 6,0 0,6 -6,0 z M 198,78 l 6,0 0,6 -6,0 z M 204,78 l 6,0 0,6 -6,0 z M 210,78 l 6,0 0,6 -6,0 z M 216,78 l 6,0 0,6 -6,0 z M 6,84 l 6,0 0,6 -6,0 z M 18,84 l 6,0 0,6 -6,0 z M 30,84 l 6,0 0,6 -6,0 z M 48,84 l 6,0 0,6 -6,0 z M 60,84 l 6,0 0,6 -6,0 z M 78,84 l 6,0 0,6 -6,0 z M 84,84 l 6,0 0,6 -6,0 z M 90,84 l 6,0 0,6 -6,0 z M 96,84 l 6,0 0,6 -6,0 z M 114,84 l 6,0 0,6 -6,0 z M 120,84 l 6,0 0,6 -6,0 z M 126,84 l 6,0 0,6 -6,0 z M 132,84 l 6,0 0,6 -6,0 z M 144,84 l 6,0 0,6 -6,0 z M 162,84 l 6,0 0,6 -6,0 z M 174,84 l 6,0 0,6 -6,0 z M 180,84 l 6,0 0,6 -6,0 z M 192,84 l 6,0 0,6 -6,0 z M 210,84 l 6,0 0,6 -6,0 z M 24,90 l 6,0 0,6 -6,0 z M 42,90 l 6,0 0,6 -6,0 z M 48,90 l 6,0 0,6 -6,0 z M 54,90 l 6,0 0,6 -6,0 z M 60,90 l 6,0 0,6 -6,0 z M 66,90 l 6,0 0,6 -6,0 z M 84,90 l 6,0 0,6 -6,0 z M 90,90 l 6,0 0,6 -6,0 z M 96,90 l 6,0 0,6 -6,0 z M 102,90 l 6,0 0,6 -6,0 z M 126,90 l 6,0 0,6 -6,0 z M 150,90 l 6,0 0,6 -6,0 z M 156,90 l 6,0 0,6 -6,0 z M 168,90 l 6,0 0,6 -6,0 z M 174,90 l 6,0 0,6 -6,0 z M 186,90 l 6,0 0,6 -6,0 z M 192,90 l 6,0 0,6 -6,0 z M 198,90 l 6,0 0,6 -6,0 z M 204,90 l 6,0 0,6 -6,0 z M 210,90 l 6,0 0,6 -6,0 z M 216,90 l 6,0 0,6 -6,0 z M 222,90 l 6,0 0,6 -6,0 z M 18,96 l 6,0 0,6 -6,0 z M 24,96 l 6,0 0,6 -6,0 z M 48,96 l 6,0 0,6 -6,0 z M 54,96 l 6,0 0,6 -6,0 z M 66,96 l 6,0 0,6 -6,0 z M 78,96 l 6,0 0,6 -6,0 z M 84,96 l 6,0 0,6 -6,0 z M 96,96 l 6,0 0,6 -6,0 z M 114,96 l 6,0 0,6 -6,0 z M 120,96 l 6,0 0,6 -6,0 z M 126,96 l 6,0 0,6 -6,0 z M 132,96 l 6,0 0,6 -6,0 z M 162,96 l 6,0 0,6 -6,0 z M 174,96 l 6,0 0,6 -6,0 z M 180,96 l 6,0 0,6 -6,0 z M 198,96 l 6,0 0,6 -6,0 z M 204,96 l 6,0 0,6 -6,0 z M 216,96 l 6,0 0,6 -6,0 z M 6,102 l 6,0 0,6 -6,0 z M 12,102 l 6,0 0,6 -6,0 z M 18,102 l 6,0 0,6 -6,0 z M 24,102 l 6,0 0,6 -6,0 z M 42,102 l 6,0 0,6 -6,0 z M 54,102 l 6,0 0,6 -6,0 z M 60,102 l 6,0 0,6 -6,0 z M 78,102 l 6,0 0,6 -6,0 z M 90,102 l 6,0 0,6 -6,0 z M 96,102 l 6,0 0,6 -6,0 z M 108,102 l 6,0 0,6 -6,0 z M 138,102 l 6,0 0,6 -6,0 z M 144,102 l 6,0 0,6 -6,0 z M 150,102 l 6,0 0,6 -6,0 z M 156,102 l 6,0 0,6 -6,0 z M 162,102 l 6,0 0,6 -6,0 z M 168,102 l 6,0 0,6 -6,0 z M 174,102 l 6,0 0,6 -6,0 z M 186,102 l 6,0 0,6 -6,0 z M 198,102 l 6,0 0,6 -6,0 z M 210,102 l 6,0 0,6 -6,0 z M 222,102 l 6,0 0,6 -6,0 z M 12,108 l 6,0 0,6 -6,0 z M 18,108 l 6,0 0,6 -6,0 z M 24,108 l 6,0 0,6 -6,0 z M 54,108 l 6,0 0,6 -6,0 z M 60,108 l 6,0 0,6 -6,0 z M 96,108 l 6,0 0,6 -6,0 z M 102,108 l 6,0 0,6 -6,0 z M 108,108 l 6,0 0,6 -6,0 z M 114,108 l 6,0 0,6 -6,0 z M 120,108 l 6,0 0,6 -6,0 z M 126,108 l 6,0 0,6 -6,0 z M 132,108 l 6,0 0,6 -6,0 z M 144,108 l 6,0 0,6 -6,0 z M 174,108 l 6,0 0,6 -6,0 z M 180,108 l 6,0 0,6 -6,0 z M 192,108 l 6,0 0,6 -6,0 z M 204,108 l 6,0 0,6 -6,0 z M 210,108 l 6,0 0,6 -6,0 z M 6,114 l 6,0 0,6 -6,0 z M 12,114 l 6,0 0,6 -6,0 z M 36,114 l 6,0 0,6 -6,0 z M 42,114 l 6,0 0,6 -6,0 z M 48,114 l 6,0 0,6 -6,0 z M 54,114 l 6,0 0,6 -6,0 z M 72,114 l 6,0 0,6 -6,0 z M 78,114 l 6,0 0,6 -6,0 z M 108,114 l 6,0 0,6 -6,0 z M 126,114 l 6,0 0,6 -6,0 z M 132,114 l 6,0 0,6 -6,0 z M 138,114 l 6,0 0,6 -6,0 z M 162,114 l 6,0 0,6 -6,0 z M 168,114 l 6,0 0,6 -6,0 z M 180,114 l 6,0 0,6 -6,0 z M 186,114 l 6,0 0,6 -6,0 z M 192,114 l 6,0 0,6 -6,0 z M 198,114 l 6,0 0,6 -6,0 z M 204,114 l 6,0 0,6 -6,0 z M 210,114 l 6,0 0,6 -6,0 z M 216,114 l 6,0 0,6 -6,0 z M 222,114 l 6,0 0,6 -6,0 z M 24,120 l 6,0 0,6 -6,0 z M 48,120 l 6,0 0,6 -6,0 z M 54,120 l 6,0 0,6 -6,0 z M 72,120 l 6,0 0,6 -6,0 z M 90,120 l 6,0 0,6 -6,0 z M 102,120 l 6,0 0,6 -6,0 z M 132,120 l 6,0 0,6 -6,0 z M 138,120 l 6,0 0,6 -6,0 z M 144,120 l 6,0 0,6 -6,0 z M 150,120 l 6,0 0,6 -6,0 z M 168,120 l 6,0 0,6 -6,0 z M 174,120 l 6,0 0,6 -6,0 z M 222,120 l 6,0 0,6 -6,0 z M 6,126 l 6,0 0,6 -6,0 z M 12,126 l 6,0 0,6 -6,0 z M 18,126 l 6,0 0,6 -6,0 z M 30,126 l 6,0 0,6 -6,0 z M 36,126 l 6,0 0,6 -6,0 z M 42,126 l 6,0 0,6 -6,0 z M 48,126 l 6,0 0,6 -6,0 z M 54,126 l 6,0 0,6 -6,0 z M 72,126 l 6,0 0,6 -6,0 z M 102,126 l 6,0 0,6 -6,0 z M 108,126 l 6,0 0,6 -6,0 z M 138,126 l 6,0 0,6 -6,0 z M 156,126 l 6,0 0,6 -6,0 z M 162,126 l 6,0 0,6 -6,0 z M 168,126 l 6,0 0,6 -6,0 z M 174,126 l 6,0 0,6 -6,0 z M 180,126 l 6,0 0,6 -6,0 z M 186,126 l 6,0 0,6 -6,0 z M 198,126 l 6,0 0,6 -6,0 z M 204,126 l 6,0 0,6 -6,0 z M 210,126 l 6,0 0,6 -6,0 z M 216,126 l 6,0 0,6 -6,0 z M 222,126 l 6,0 0,6 -6,0 z M 6,132 l 6,0 0,6 -6,0 z M 12,132 l 6,0 0,6 -6,0 z M 18,132 l 6,0 0,6 -6,0 z M 30,132 l 6,0 0,6 -6,0 z M 36,132 l 6,0 0,6 -6,0 z M 66,132 l 6,0 0,6 -6,0 z M 78,132 l 6,0 0,6 -6,0 z M 84,132 l 6,0 0,6 -6,0 z M 90,132 l 6,0 0,6 -6,0 z M 96,132 l 6,0 0,6 -6,0 z M 108,132 l 6,0 0,6 -6,0 z M 114,132 l 6,0 0,6 -6,0 z M 120,132 l 6,0 0,6 -6,0 z M 126,132 l 6,0 0,6 -6,0 z M 144,132 l 6,0 0,6 -6,0 z M 162,132 l 6,0 0,6 -6,0 z M 192,132 l 6,0 0,6 -6,0 z M 204,132 l 6,0 0,6 -6,0 z M 216,132 l 6,0 0,6 -6,0 z M 12,138 l 6,0 0,6 -6,0 z M 24,138 l 6,0 0,6 -6,0 z M 42,138 l 6,0 0,6 -6,0 z M 54,138 l 6,0 0,6 -6,0 z M 60,138 l 6,0 0,6 -6,0 z M 84,138 l 6,0 0,6 -6,0 z M 90,138 l 6,0 0,6 -6,0 z M 96,138 l 6,0 0,6 -6,0 z M 102,138 l 6,0 0,6 -6,0 z M 108,138 l 6,0 0,6 -6,0 z M 126,138 l 6,0 0,6 -6,0 z M 132,138 l 6,0 0,6 -6,0 z M 138,138 l 6,0 0,6 -6,0 z M 150,138 l 6,0 0,6 -6,0 z M 156,138 l 6,0 0,6 -6,0 z M 168,138 l 6,0 0,6 -6,0 z M 186,138 l 6,0 0,6 -6,0 z M 204,138 l 6,0 0,6 -6,0 z M 210,138 l 6,0 0,6 -6,0 z M 216,138 l 6,0 0,6 -6,0 z M 222,138 l 6,0 0,6 -6,0 z M 6,144 l 6,0 0,6 -6,0 z M 12,144 l 6,0 0,6 -6,0 z M 18,144 l 6,0 0,6 -6,0 z M 30,144 l 6,0 0,6 -6,0 z M 36,144 l 6,0 0,6 -6,0 z M 60,144 l 6,0 0,6 -6,0 z M 66,144 l 6,0 0,6 -6,0 z M 78,144 l 6,0 0,6 -6,0 z M 84,144 l 6,0 0,6 -6,0 z M 96,144 l 6,0 0,6 -6,0 z M 114,144 l 6,0 0,6 -6,0 z M 126,144 l 6,0 0,6 -6,0 z M 132,144 l 6,0 0,6 -6,0 z M 150,144 l 6,0 0,6 -6,0 z M 168,144 l 6,0 0,6 -6,0 z M 174,144 l 6,0 0,6 -6,0 z M 180,144 l 6,0 0,6 -6,0 z M 192,144 l 6,0 0,6 -6,0 z M 198,144 l 6,0 0,6 -6,0 z M 216,144 l 6,0 0,6 -6,0 z M 222,144 l 6,0 0,6 -6,0 z M 12,150 l 6,0 0,6 -6,0 z M 18,150 l 6,0 0,6 -6,0 z M 24,150 l 6,0 0,6 -6,0 z M 42,150 l 6,0 0,6 -6,0 z M 48,150 l 6,0 0,6 -6,0 z M 60,150 l 6,0 0,6 -6,0 z M 78,150 l 6,0 0,6 -6,0 z M 90,150 l 6,0 0,6 -6,0 z M 96,150 l 6,0 0,6 -6,0 z M 108,150 l 6,0 0,6 -6,0 z M 120,150 l 6,0 0,6 -6,0 z M 144,150 l 6,0 0,6 -6,0 z M 156,150 l 6,0 0,6 -6,0 z M 168,150 l 6,0 0,6 -6,0 z M 174,150 l 6,0 0,6 -6,0 z M 180,150 l 6,0 0,6 -6,0 z M 186,150 l 6,0 0,6 -6,0 z M 198,150 l 6,0 0,6 -6,0 z M 204,150 l 6,0 0,6 -6,0 z M 210,150 l 6,0 0,6 -6,0 z M 6,156 l 6,0 0,6 -6,0 z M 36,156 l 6,0 0,6 -6,0 z M 48,156 l 6,0 0,6 -6,0 z M 54,156 l 6,0 0,6 -6,0 z M 66,156 l 6,0 0,6 -6,0 z M 96,156 l 6,0 0,6 -6,0 z M 102,156 l 6,0 0,6 -6,0 z M 114,156 l 6,0 0,6 -6,0 z M 126,156 l 6,0 0,6 -6,0 z M 138,156 l 6,0 0,6 -6,0 z M 144,156 l 6,0 0,6 -6,0 z M 156,156 l 6,0 0,6 -6,0 z M 162,156 l 6,0 0,6 -6,0 z M 174,156 l 6,0 0,6 -6,0 z M 192,156 l 6,0 0,6 -6,0 z M 204,156 l 6,0 0,6 -6,0 z M 6,162 l 6,0 0,6 -6,0 z M 24,162 l 6,0 0,6 -6,0 z M 42,162 l 6,0 0,6 -6,0 z M 72,162 l 6,0 0,6 -6,0 z M 78,162 l 6,0 0,6 -6,0 z M 114,162 l 6,0 0,6 -6,0 z M 126,162 l 6,0 0,6 -6,0 z M 132,162 l 6,0 0,6 -6,0 z M 138,162 l 6,0 0,6 -6,0 z M 168,162 l 6,0 0,6 -6,0 z M 174,162 l 6,0 0,6 -6,0 z M 180,162 l 6,0 0,6 -6,0 z M 186,162 l 6,0 0,6 -6,0 z M 192,162 l 6,0 0,6 -6,0 z M 198,162 l 6,0 0,6 -6,0 z M 210,162 l 6,0 0,6 -6,0 z M 216,162 l 6,0 0,6 -6,0 z M 222,162 l 6,0 0,6 -6,0 z M 6,168 l 6,0 0,6 -6,0 z M 18,168 l 6,0 0,6 -6,0 z M 24,168 l 6,0 0,6 -6,0 z M 54,168 l 6,0 0,6 -6,0 z M 60,168 l 6,0 0,6 -6,0 z M 66,168 l 6,0 0,6 -6,0 z M 72,168 l 6,0 0,6 -6,0 z M 90,168 l 6,0 0,6 -6,0 z M 102,168 l 6,0 0,6 -6,0 z M 126,168 l 6,0 0,6 -6,0 z M 132,168 l 6,0 0,6 -6,0 z M 138,168 l 6,0 0,6 -6,0 z M 150,168 l 6,0 0,6 -6,0 z M 174,168 l 6,0 0,6 -6,0 z M 180,168 l 6,0 0,6 -6,0 z M 186,168 l 6,0 0,6 -6,0 z M 192,168 l 6,0 0,6 -6,0 z M 204,168 l 6,0 0,6 -6,0 z M 6,174 l 6,0 0,6 -6,0 z M 18,174 l 6,0 0,6 -6,0 z M 42,174 l 6,0 0,6 -6,0 z M 54,174 l 6,0 0,6 -6,0 z M 60,174 l 6,0 0,6 -6,0 z M 66,174 l 6,0 0,6 -6,0 z M 72,174 l 6,0 0,6 -6,0 z M 108,174 l 6,0 0,6 -6,0 z M 132,174 l 6,0 0,6 -6,0 z M 138,174 l 6,0 0,6 -6,0 z M 156,174 l 6,0 0,6 -6,0 z M 162,174 l 6,0 0,6 -6,0 z M 168,174 l 6,0 0,6 -6,0 z M 174,174 l 6,0 0,6 -6,0 z M 180,174 l 6,0 0,6 -6,0 z M 186,174 l 6,0 0,6 -6,0 z M 192,174 l 6,0 0,6 -6,0 z M 198,174 l 6,0 0,6 -6,0 z M 210,174 l 6,0 0,6 -6,0 z M 222,174 l 6,0 0,6 -6,0 z M 54,180 l 6,0 0,6 -6,0 z M 78,180 l 6,0 0,6 -6,0 z M 84,180 l 6,0 0,6 -6,0 z M 90,180 l 6,0 0,6 -6,0 z M 96,180 l 6,0 0,6 -6,0 z M 120,180 l 6,0 0,6 -6,0 z M 126,180 l 6,0 0,6 -6,0 z M 144,180 l 6,0 0,6 -6,0 z M 156,180 l 6,0 0,6 -6,0 z M 168,180 l 6,0 0,6 -6,0 z M 174,180 l 6,0 0,6 -6,0 z M 198,180 l 6,0 0,6 -6,0 z M 204,180 l 6,0 0,6 -6,0 z M 6,186 l 6,0 0,6 -6,0 z M 12,186 l 6,0 0,6 -6,0 z M 18,186 l 6,0 0,6 -6,0 z M 24,186 l 6,0 0,6 -6,0 z M 30,186 l 6,0 0,6 -6,0 z M 36,186 l 6,0 0,6 -6,0 z M 42,186 l 6,0 0,6 -6,0 z M 54,186 l 6,0 0,6 -6,0 z M 66,186 l 6,0 0,6 -6,0 z M 84,186 l 6,0 0,6 -6,0 z M 90,186 l 6,0 0,6 -6,0 z M 96,186 l 6,0 0,6 -6,0 z M 126,186 l 6,0 0,6 -6,0 z M 132,186 l 6,0 0,6 -6,0 z M 150,186 l 6,0 0,6 -6,0 z M 156,186 l 6,0 0,6 -6,0 z M 174,186 l 6,0 0,6 -6,0 z M 186,186 l 6,0 0,6 -6,0 z M 198,186 l 6,0 0,6 -6,0 z M 216,186 l 6,0 0,6 -6,0 z M 222,186 l 6,0 0,6 -6,0 z M 6,192 l 6,0 0,6 -6,0 z M 42,192 l 6,0 0,6 -6,0 z M 60,192 l 6,0 0,6 -6,0 z M 66,192 l 6,0 0,6 -6,0 z M 78,192 l 6,0 0,6 -6,0 z M 84,192 l 6,0 0,6 -6,0 z M 102,192 l 6,0 0,6 -6,0 z M 114,192 l 6,0 0,6 -6,0 z M 120,192 l 6,0 0,6 -6,0 z M 126,192 l 6,0 0,6 -6,0 z M 132,192 l 6,0 0,6 -6,0 z M 138,192 l 6,0 0,6 -6,0 z M 150,192 l 6,0 0,6 -6,0 z M 174,192 l 6,0 0,6 -6,0 z M 198,192 l 6,0 0,6 -6,0 z M 216,192 l 6,0 0,6 -6,0 z M 6,198 l 6,0 0,6 -6,0 z M 18,198 l 6,0 0,6 -6,0 z M 24,198 l 6,0 0,6 -6,0 z M 30,198 l 6,0 0,6 -6,0 z M 42,198 l 6,0 0,6 -6,0 z M 54,198 l 6,0 0,6 -6,0 z M 78,198 l 6,0 0,6 -6,0 z M 90,198 l 6,0 0,6 -6,0 z M 108,198 l 6,0 0,6 -6,0 z M 138,198 l 6,0 0,6 -6,0 z M 156,198 l 6,0 0,6 -6,0 z M 162,198 l 6,0 0,6 -6,0 z M 168,198 l 6,0 0,6 -6,0 z M 174,198 l 6,0 0,6 -6,0 z M 180,198 l 6,0 0,6 -6,0 z M 186,198 l 6,0 0,6 -6,0 z M 192,198 l 6,0 0,6 -6,0 z M 198,198 l 6,0 0,6 -6,0 z M 210,198 l 6,0 0,6 -6,0 z M 216,198 l 6,0 0,6 -6,0 z M 6,204 l 6,0 0,6 -6,0 z M 18,204 l 6,0 0,6 -6,0 z M 24,204 l 6,0 0,6 -6,0 z M 30,204 l 6,0 0,6 -6,0 z M 42,204 l 6,0 0,6 -6,0 z M 54,204 l 6,0 0,6 -6,0 z M 60,204 l 6,0 0,6 -6,0 z M 102,204 l 6,0 0,6 -6,0 z M 108,204 l 6,0 0,6 -6,0 z M 114,204 l 6,0 0,6 -6,0 z M 120,204 l 6,0 0,6 -6,0 z M 126,204 l 6,0 0,6 -6,0 z M 144,204 l 6,0 0,6 -6,0 z M 168,204 l 6,0 0,6 -6,0 z M 180,204 l 6,0 0,6 -6,0 z M 186,204 l 6,0 0,6 -6,0 z M 192,204 l 6,0 0,6 -6,0 z M 198,204 l 6,0 0,6 -6,0 z M 204,204 l 6,0 0,6 -6,0 z M 222,204 l 6,0 0,6 -6,0 z M 6,210 l 6,0 0,6 -6,0 z M 18,210 l 6,0 0,6 -6,0 z M 24,210 l 6,0 0,6 -6,0 z M 30,210 l 6,0 0,6 -6,0 z M 42,210 l 6,0 0,6 -6,0 z M 54,210 l 6,0 0,6 -6,0 z M 60,210 l 6,0 0,6 -6,0 z M 72,210 l 6,0 0,6 -6,0 z M 78,210 l 6,0 0,6 -6,0 z M 96,210 l 6,0 0,6 -6,0 z M 102,210 l 6,0 0,6 -6,0 z M 114,210 l 6,0 0,6 -6,0 z M 126,210 l 6,0 0,6 -6,0 z M 132,210 l 6,0 0,6 -6,0 z M 138,210 l 6,0 0,6 -6,0 z M 150,210 l 6,0 0,6 -6,0 z M 156,210 l 6,0 0,6 -6,0 z M 168,210 l 6,0 0,6 -6,0 z M 180,210 l 6,0 0,6 -6,0 z M 216,210 l 6,0 0,6 -6,0 z M 222,210 l 6,0 0,6 -6,0 z M 6,216 l 6,0 0,6 -6,0 z M 42,216 l 6,0 0,6 -6,0 z M 54,216 l 6,0 0,6 -6,0 z M 60,216 l 6,0 0,6 -6,0 z M 66,216 l 6,0 0,6 -6,0 z M 72,216 l 6,0 0,6 -6,0 z M 90,216 l 6,0 0,6 -6,0 z M 102,216 l 6,0 0,6 -6,0 z M 132,216 l 6,0 0,6 -6,0 z M 138,216 l 6,0 0,6 -6,0 z M 144,216 l 6,0 0,6 -6,0 z M 162,216 l 6,0 0,6 -6,0 z M 174,216 l 6,0 0,6 -6,0 z M 180,216 l 6,0 0,6 -6,0 z M 186,216 l 6,0 0,6 -6,0 z M 222,216 l 6,0 0,6 -6,0 z M 6,222 l 6,0 0,6 -6,0 z M 12,222 l 6,0 0,6 -6,0 z M 18,222 l 6,0 0,6 -6,0 z M 24,222 l 6,0 0,6 -6,0 z M 30,222 l 6,0 0,6 -6,0 z M 36,222 l 6,0 0,6 -6,0 z M 42,222 l 6,0 0,6 -6,0 z M 54,222 l 6,0 0,6 -6,0 z M 72,222 l 6,0 0,6 -6,0 z M 108,222 l 6,0 0,6 -6,0 z M 138,222 l 6,0 0,6 -6,0 z M 144,222 l 6,0 0,6 -6,0 z M 150,222 l 6,0 0,6 -6,0 z M 156,222 l 6,0 0,6 -6,0 z M 162,222 l 6,0 0,6 -6,0 z M 180,222 l 6,0 0,6 -6,0 z M 186,222 l 6,0 0,6 -6,0 z M 192,222 l 6,0 0,6 -6,0 z M 204,222 l 6,0 0,6 -6,0 z M 210,222 l 6,0 0,6 -6,0 z M 216,222 l 6,0 0,6 -6,0 z M 222,222 l 6,0 0,6 -6,0 z "/></g></svg>